M48
INCH,TZ
T1C0.024
T2C0.025
T3C0.031
T4C0.035
T5C0.039
T6C0.059
T7C0.129
%
G90
G05
T1
X4.5669Y-4.4094
X4.5669Y-4.6063
X4.6654Y-4.5079
T2
X3.2717Y-4.685
X3.4646Y-4.9646
X3.4646Y-5.1496
X3.5551Y-4.3346
X3.5551Y-4.563
X3.6142Y-4.0551
X3.6535Y-3.7677
X3.685Y-5.1102
X3.6929Y-4.9646
X3.7323Y-5.3858
X3.748Y-3.7165
X3.811Y-3.8622
X3.8268Y-3.815
X3.8386Y-4.1811
X3.878Y-4.7087
X3.9134Y-3.6535
X3.9252Y-3.9252
X3.9291Y-4.4094
X3.9646Y-3.9488
X3.9843Y-5.063
X4.Y-4.1024
X4.0157Y-5.2126
X4.0315Y-4.7874
X4.0354Y-3.5039
X4.0354Y-3.9449
X4.063Y-4.0197
X4.0748Y-4.6181
X4.0906Y-4.4094
X4.1142Y-4.9961
X4.1181Y-4.8701
X4.1181Y-4.9213
X4.122Y-4.374
X4.1299Y-4.252
X4.1457Y-4.189
X4.189Y-4.9213
X4.189Y-5.311
X4.2087Y-4.8819
X4.252Y-4.1024
X4.252Y-4.878
X4.252Y-4.9409
X4.2559Y-4.8268
X4.3307Y-4.1732
X4.3858Y-3.6339
X4.3937Y-3.9528
X4.4055Y-4.0315
X4.4291Y-3.6654
X4.4646Y-4.8858
X4.4803Y-3.6693
X4.4921Y-5.2717
X4.5945Y-5.311
X4.626Y-5.1378
X4.626Y-5.2165
X4.6575Y-3.4094
X4.6654Y-4.2992
X4.6811Y-4.0433
X4.6969Y-3.7874
X4.7047Y-4.3937
X4.7362Y-4.1811
X4.7441Y-4.3307
X4.7441Y-4.626
X4.7441Y-5.3937
X4.7559Y-3.5945
X4.7717Y-3.4016
X4.7756Y-4.8425
X4.8346Y-3.6732
X4.8622Y-3.4055
X4.8858Y-3.937
X4.937Y-4.689
X4.9921Y-3.7953
X5.Y-5.3543
X5.0551Y-3.5984
X5.063Y-4.2717
X5.063Y-4.4567
X5.0787Y-3.4016
X5.0945Y-4.2283
X5.0984Y-4.1417
X5.1024Y-4.3071
X5.1299Y-4.7087
X5.2559Y-3.9252
X5.2559Y-4.0236
X5.2559Y-4.3307
X5.2677Y-4.1811
X5.2677Y-4.4291
X5.2795Y-4.3819
X5.2913Y-4.0945
X5.2913Y-4.4882
X5.3031Y-3.9252
X5.4606Y-4.2402
X5.4606Y-4.4173
X5.5079Y-4.2441
X5.5512Y-4.2441
T3
X3.8189Y-5.3543
X4.0157Y-5.3543
T4
X4.9606Y-5.4331
X5.0394Y-5.4331
X5.1181Y-5.4331
T5
X3.3843Y-3.6551
X3.3843Y-3.7551
X3.3843Y-3.8551
X3.3843Y-3.9551
X3.3843Y-4.0551
X3.4843Y-3.6551
X3.4843Y-3.7551
X3.4843Y-3.8551
X3.4843Y-3.9551
X3.4843Y-4.0551
X3.7638Y-5.2559
X4.0323Y-3.6969
X4.0709Y-5.2559
X4.1323Y-3.6969
X4.2323Y-3.6969
X4.4Y-3.2
X4.4685Y-4.1929
X4.5Y-3.2
X4.5079Y-3.9961
X4.7Y-3.2
X4.8Y-3.2
X4.8228Y-4.0157
X4.9Y-3.2
X4.9606Y-4.0157
X5.1Y-3.2
X5.2Y-3.2
X5.3937Y-3.878
X5.5Y-4.9
X5.5Y-5.
X5.5118Y-4.6654
T6
X4.878Y-5.4331
X5.2008Y-5.4331
T7
X3.4Y-3.3
X3.4Y-5.3
X5.4Y-3.3
X5.4Y-5.3
T0
M30
