%FSLAX34Y34*%
G04 Gerber Fmt 3.4, Leading zero omitted, Abs format*
G04 (created by PCBNEW (2013-12-26 BZR 4576)-product) date Tue 14 Jan 2014 08:15:22 PM EST*
%MOIN*%
G01*
G70*
G90*
G04 APERTURE LIST*
%ADD10C,0.005906*%
%ADD11C,0.007874*%
%ADD12C,0.011811*%
%ADD13C,0.003937*%
G04 APERTURE END LIST*
G54D10*
G54D11*
X50978Y-50886D02*
X50978Y-50493D01*
X50809Y-50886D02*
X50809Y-50680D01*
X50828Y-50643D01*
X50866Y-50624D01*
X50922Y-50624D01*
X50959Y-50643D01*
X50978Y-50661D01*
X50678Y-50624D02*
X50528Y-50624D01*
X50622Y-50493D02*
X50622Y-50830D01*
X50603Y-50868D01*
X50566Y-50886D01*
X50528Y-50886D01*
X50453Y-50624D02*
X50303Y-50624D01*
X50397Y-50493D02*
X50397Y-50830D01*
X50378Y-50868D01*
X50341Y-50886D01*
X50303Y-50886D01*
X50172Y-50624D02*
X50172Y-51017D01*
X50172Y-50643D02*
X50134Y-50624D01*
X50059Y-50624D01*
X50022Y-50643D01*
X50003Y-50661D01*
X49985Y-50699D01*
X49985Y-50811D01*
X50003Y-50849D01*
X50022Y-50868D01*
X50059Y-50886D01*
X50134Y-50886D01*
X50172Y-50868D01*
X49835Y-50868D02*
X49797Y-50886D01*
X49722Y-50886D01*
X49685Y-50868D01*
X49666Y-50830D01*
X49666Y-50811D01*
X49685Y-50774D01*
X49722Y-50755D01*
X49778Y-50755D01*
X49816Y-50736D01*
X49835Y-50699D01*
X49835Y-50680D01*
X49816Y-50643D01*
X49778Y-50624D01*
X49722Y-50624D01*
X49685Y-50643D01*
X49497Y-50849D02*
X49478Y-50868D01*
X49497Y-50886D01*
X49516Y-50868D01*
X49497Y-50849D01*
X49497Y-50886D01*
X49497Y-50643D02*
X49478Y-50661D01*
X49497Y-50680D01*
X49516Y-50661D01*
X49497Y-50643D01*
X49497Y-50680D01*
X49028Y-50474D02*
X49366Y-50980D01*
X48616Y-50474D02*
X48953Y-50980D01*
X48316Y-50624D02*
X48316Y-50943D01*
X48335Y-50980D01*
X48353Y-50999D01*
X48391Y-51017D01*
X48447Y-51017D01*
X48485Y-50999D01*
X48316Y-50868D02*
X48353Y-50886D01*
X48428Y-50886D01*
X48466Y-50868D01*
X48485Y-50849D01*
X48503Y-50811D01*
X48503Y-50699D01*
X48485Y-50661D01*
X48466Y-50643D01*
X48428Y-50624D01*
X48353Y-50624D01*
X48316Y-50643D01*
X48128Y-50886D02*
X48128Y-50624D01*
X48128Y-50493D02*
X48147Y-50511D01*
X48128Y-50530D01*
X48110Y-50511D01*
X48128Y-50493D01*
X48128Y-50530D01*
X47997Y-50624D02*
X47847Y-50624D01*
X47941Y-50493D02*
X47941Y-50830D01*
X47922Y-50868D01*
X47885Y-50886D01*
X47847Y-50886D01*
X47716Y-50886D02*
X47716Y-50493D01*
X47547Y-50886D02*
X47547Y-50680D01*
X47566Y-50643D01*
X47604Y-50624D01*
X47660Y-50624D01*
X47697Y-50643D01*
X47716Y-50661D01*
X47191Y-50624D02*
X47191Y-50886D01*
X47360Y-50624D02*
X47360Y-50830D01*
X47341Y-50868D01*
X47304Y-50886D01*
X47247Y-50886D01*
X47210Y-50868D01*
X47191Y-50849D01*
X47004Y-50886D02*
X47004Y-50493D01*
X47004Y-50643D02*
X46966Y-50624D01*
X46891Y-50624D01*
X46854Y-50643D01*
X46835Y-50661D01*
X46816Y-50699D01*
X46816Y-50811D01*
X46835Y-50849D01*
X46854Y-50868D01*
X46891Y-50886D01*
X46966Y-50886D01*
X47004Y-50868D01*
X46647Y-50849D02*
X46629Y-50868D01*
X46647Y-50886D01*
X46666Y-50868D01*
X46647Y-50849D01*
X46647Y-50886D01*
X46291Y-50868D02*
X46329Y-50886D01*
X46404Y-50886D01*
X46441Y-50868D01*
X46460Y-50849D01*
X46479Y-50811D01*
X46479Y-50699D01*
X46460Y-50661D01*
X46441Y-50643D01*
X46404Y-50624D01*
X46329Y-50624D01*
X46291Y-50643D01*
X46066Y-50886D02*
X46104Y-50868D01*
X46122Y-50849D01*
X46141Y-50811D01*
X46141Y-50699D01*
X46122Y-50661D01*
X46104Y-50643D01*
X46066Y-50624D01*
X46010Y-50624D01*
X45973Y-50643D01*
X45954Y-50661D01*
X45935Y-50699D01*
X45935Y-50811D01*
X45954Y-50849D01*
X45973Y-50868D01*
X46010Y-50886D01*
X46066Y-50886D01*
X45766Y-50886D02*
X45766Y-50624D01*
X45766Y-50661D02*
X45748Y-50643D01*
X45710Y-50624D01*
X45654Y-50624D01*
X45616Y-50643D01*
X45598Y-50680D01*
X45598Y-50886D01*
X45598Y-50680D02*
X45579Y-50643D01*
X45541Y-50624D01*
X45485Y-50624D01*
X45448Y-50643D01*
X45429Y-50680D01*
X45429Y-50886D01*
X44960Y-50474D02*
X45298Y-50980D01*
X44829Y-50624D02*
X44829Y-50961D01*
X44848Y-50999D01*
X44885Y-51017D01*
X44904Y-51017D01*
X44829Y-50493D02*
X44848Y-50511D01*
X44829Y-50530D01*
X44810Y-50511D01*
X44829Y-50493D01*
X44829Y-50530D01*
X44585Y-50886D02*
X44623Y-50868D01*
X44641Y-50849D01*
X44660Y-50811D01*
X44660Y-50699D01*
X44641Y-50661D01*
X44623Y-50643D01*
X44585Y-50624D01*
X44529Y-50624D01*
X44491Y-50643D01*
X44473Y-50661D01*
X44454Y-50699D01*
X44454Y-50811D01*
X44473Y-50849D01*
X44491Y-50868D01*
X44529Y-50886D01*
X44585Y-50886D01*
X44135Y-50868D02*
X44173Y-50886D01*
X44248Y-50886D01*
X44285Y-50868D01*
X44304Y-50830D01*
X44304Y-50680D01*
X44285Y-50643D01*
X44248Y-50624D01*
X44173Y-50624D01*
X44135Y-50643D01*
X44116Y-50680D01*
X44116Y-50718D01*
X44304Y-50755D01*
X44004Y-50624D02*
X43854Y-50624D01*
X43948Y-50886D02*
X43948Y-50549D01*
X43929Y-50511D01*
X43892Y-50493D01*
X43854Y-50493D01*
X43573Y-50868D02*
X43610Y-50886D01*
X43685Y-50886D01*
X43723Y-50868D01*
X43742Y-50830D01*
X43742Y-50680D01*
X43723Y-50643D01*
X43685Y-50624D01*
X43610Y-50624D01*
X43573Y-50643D01*
X43554Y-50680D01*
X43554Y-50718D01*
X43742Y-50755D01*
X43385Y-50886D02*
X43385Y-50624D01*
X43385Y-50699D02*
X43367Y-50661D01*
X43348Y-50643D01*
X43310Y-50624D01*
X43273Y-50624D01*
X43142Y-50624D02*
X43142Y-50886D01*
X43142Y-50661D02*
X43123Y-50643D01*
X43085Y-50624D01*
X43029Y-50624D01*
X42992Y-50643D01*
X42973Y-50680D01*
X42973Y-50886D01*
X42635Y-50868D02*
X42673Y-50886D01*
X42748Y-50886D01*
X42785Y-50868D01*
X42804Y-50830D01*
X42804Y-50680D01*
X42785Y-50643D01*
X42748Y-50624D01*
X42673Y-50624D01*
X42635Y-50643D01*
X42617Y-50680D01*
X42617Y-50718D01*
X42804Y-50755D01*
X42448Y-50886D02*
X42448Y-50624D01*
X42448Y-50699D02*
X42429Y-50661D01*
X42410Y-50643D01*
X42373Y-50624D01*
X42335Y-50624D01*
X41923Y-50474D02*
X42260Y-50980D01*
X41811Y-50868D02*
X41773Y-50886D01*
X41698Y-50886D01*
X41661Y-50868D01*
X41642Y-50830D01*
X41642Y-50811D01*
X41661Y-50774D01*
X41698Y-50755D01*
X41754Y-50755D01*
X41792Y-50736D01*
X41811Y-50699D01*
X41811Y-50680D01*
X41792Y-50643D01*
X41754Y-50624D01*
X41698Y-50624D01*
X41661Y-50643D01*
X41529Y-50624D02*
X41379Y-50624D01*
X41473Y-50493D02*
X41473Y-50830D01*
X41454Y-50868D01*
X41417Y-50886D01*
X41379Y-50886D01*
X41248Y-50886D02*
X41248Y-50624D01*
X41248Y-50661D02*
X41229Y-50643D01*
X41192Y-50624D01*
X41136Y-50624D01*
X41098Y-50643D01*
X41079Y-50680D01*
X41079Y-50886D01*
X41079Y-50680D02*
X41061Y-50643D01*
X41023Y-50624D01*
X40967Y-50624D01*
X40929Y-50643D01*
X40911Y-50680D01*
X40911Y-50886D01*
X40761Y-50493D02*
X40517Y-50493D01*
X40648Y-50643D01*
X40592Y-50643D01*
X40554Y-50661D01*
X40536Y-50680D01*
X40517Y-50718D01*
X40517Y-50811D01*
X40536Y-50849D01*
X40554Y-50868D01*
X40592Y-50886D01*
X40704Y-50886D01*
X40742Y-50868D01*
X40761Y-50849D01*
X40367Y-50530D02*
X40348Y-50511D01*
X40311Y-50493D01*
X40217Y-50493D01*
X40179Y-50511D01*
X40161Y-50530D01*
X40142Y-50568D01*
X40142Y-50605D01*
X40161Y-50661D01*
X40386Y-50886D01*
X40142Y-50886D01*
X39973Y-50736D02*
X39673Y-50736D01*
X39486Y-50886D02*
X39486Y-50624D01*
X39486Y-50699D02*
X39467Y-50661D01*
X39448Y-50643D01*
X39411Y-50624D01*
X39373Y-50624D01*
X39298Y-50624D02*
X39148Y-50624D01*
X39242Y-50886D02*
X39242Y-50549D01*
X39223Y-50511D01*
X39186Y-50493D01*
X39148Y-50493D01*
X39017Y-50886D02*
X39017Y-50624D01*
X39017Y-50493D02*
X39036Y-50511D01*
X39017Y-50530D01*
X38998Y-50511D01*
X39017Y-50493D01*
X39017Y-50530D01*
X38661Y-50886D02*
X38661Y-50493D01*
X38661Y-50868D02*
X38698Y-50886D01*
X38773Y-50886D01*
X38811Y-50868D01*
X38830Y-50849D01*
X38848Y-50811D01*
X38848Y-50699D01*
X38830Y-50661D01*
X38811Y-50643D01*
X38773Y-50624D01*
X38698Y-50624D01*
X38661Y-50643D01*
X38473Y-50736D02*
X38173Y-50736D01*
X37817Y-50868D02*
X37855Y-50886D01*
X37930Y-50886D01*
X37967Y-50868D01*
X37986Y-50849D01*
X38005Y-50811D01*
X38005Y-50699D01*
X37986Y-50661D01*
X37967Y-50643D01*
X37930Y-50624D01*
X37855Y-50624D01*
X37817Y-50643D01*
X37592Y-50886D02*
X37630Y-50868D01*
X37649Y-50830D01*
X37649Y-50493D01*
X37386Y-50886D02*
X37424Y-50868D01*
X37442Y-50849D01*
X37461Y-50811D01*
X37461Y-50699D01*
X37442Y-50661D01*
X37424Y-50643D01*
X37386Y-50624D01*
X37330Y-50624D01*
X37292Y-50643D01*
X37274Y-50661D01*
X37255Y-50699D01*
X37255Y-50811D01*
X37274Y-50849D01*
X37292Y-50868D01*
X37330Y-50886D01*
X37386Y-50886D01*
X37086Y-50624D02*
X37086Y-50886D01*
X37086Y-50661D02*
X37067Y-50643D01*
X37030Y-50624D01*
X36974Y-50624D01*
X36936Y-50643D01*
X36917Y-50680D01*
X36917Y-50886D01*
X36580Y-50868D02*
X36617Y-50886D01*
X36692Y-50886D01*
X36730Y-50868D01*
X36749Y-50830D01*
X36749Y-50680D01*
X36730Y-50643D01*
X36692Y-50624D01*
X36617Y-50624D01*
X36580Y-50643D01*
X36561Y-50680D01*
X36561Y-50718D01*
X36749Y-50755D01*
G54D12*
X43233Y-32207D02*
X43149Y-32235D01*
X43008Y-32235D01*
X42952Y-32207D01*
X42924Y-32179D01*
X42896Y-32123D01*
X42896Y-32066D01*
X42924Y-32010D01*
X42952Y-31982D01*
X43008Y-31954D01*
X43121Y-31926D01*
X43177Y-31898D01*
X43205Y-31870D01*
X43233Y-31813D01*
X43233Y-31757D01*
X43205Y-31701D01*
X43177Y-31673D01*
X43121Y-31645D01*
X42980Y-31645D01*
X42896Y-31673D01*
X42727Y-31645D02*
X42390Y-31645D01*
X42559Y-32235D02*
X42559Y-31645D01*
X42193Y-32235D02*
X42193Y-31645D01*
X41996Y-32066D01*
X41799Y-31645D01*
X41799Y-32235D01*
X41574Y-31645D02*
X41209Y-31645D01*
X41406Y-31870D01*
X41321Y-31870D01*
X41265Y-31898D01*
X41237Y-31926D01*
X41209Y-31982D01*
X41209Y-32123D01*
X41237Y-32179D01*
X41265Y-32207D01*
X41321Y-32235D01*
X41490Y-32235D01*
X41546Y-32207D01*
X41574Y-32179D01*
X40984Y-31701D02*
X40956Y-31673D01*
X40899Y-31645D01*
X40759Y-31645D01*
X40703Y-31673D01*
X40674Y-31701D01*
X40646Y-31757D01*
X40646Y-31813D01*
X40674Y-31898D01*
X41012Y-32235D01*
X40646Y-32235D01*
X39606Y-32235D02*
X39803Y-31954D01*
X39943Y-32235D02*
X39943Y-31645D01*
X39718Y-31645D01*
X39662Y-31673D01*
X39634Y-31701D01*
X39606Y-31757D01*
X39606Y-31841D01*
X39634Y-31898D01*
X39662Y-31926D01*
X39718Y-31954D01*
X39943Y-31954D01*
X39156Y-31926D02*
X39353Y-31926D01*
X39353Y-32235D02*
X39353Y-31645D01*
X39071Y-31645D01*
X38847Y-32235D02*
X38847Y-31645D01*
X38565Y-32235D02*
X38565Y-31645D01*
X38425Y-31645D01*
X38340Y-31673D01*
X38284Y-31729D01*
X38256Y-31785D01*
X38228Y-31898D01*
X38228Y-31982D01*
X38256Y-32095D01*
X38284Y-32151D01*
X38340Y-32207D01*
X38425Y-32235D01*
X38565Y-32235D01*
X37187Y-32179D02*
X37215Y-32207D01*
X37300Y-32235D01*
X37356Y-32235D01*
X37440Y-32207D01*
X37497Y-32151D01*
X37525Y-32095D01*
X37553Y-31982D01*
X37553Y-31898D01*
X37525Y-31785D01*
X37497Y-31729D01*
X37440Y-31673D01*
X37356Y-31645D01*
X37300Y-31645D01*
X37215Y-31673D01*
X37187Y-31701D01*
X36850Y-32235D02*
X36906Y-32207D01*
X36934Y-32151D01*
X36934Y-31645D01*
X36541Y-32235D02*
X36597Y-32207D01*
X36625Y-32179D01*
X36653Y-32123D01*
X36653Y-31954D01*
X36625Y-31898D01*
X36597Y-31870D01*
X36541Y-31841D01*
X36456Y-31841D01*
X36400Y-31870D01*
X36372Y-31898D01*
X36344Y-31954D01*
X36344Y-32123D01*
X36372Y-32179D01*
X36400Y-32207D01*
X36456Y-32235D01*
X36541Y-32235D01*
X36091Y-31841D02*
X36091Y-32235D01*
X36091Y-31898D02*
X36062Y-31870D01*
X36006Y-31841D01*
X35922Y-31841D01*
X35866Y-31870D01*
X35838Y-31926D01*
X35838Y-32235D01*
X35331Y-32207D02*
X35388Y-32235D01*
X35500Y-32235D01*
X35556Y-32207D01*
X35584Y-32151D01*
X35584Y-31926D01*
X35556Y-31870D01*
X35500Y-31841D01*
X35388Y-31841D01*
X35331Y-31870D01*
X35303Y-31926D01*
X35303Y-31982D01*
X35584Y-32038D01*
X43037Y-32589D02*
X43037Y-33011D01*
X43065Y-33096D01*
X43121Y-33152D01*
X43205Y-33180D01*
X43262Y-33180D01*
X42671Y-33180D02*
X42727Y-33152D01*
X42755Y-33124D01*
X42784Y-33068D01*
X42784Y-32899D01*
X42755Y-32843D01*
X42727Y-32814D01*
X42671Y-32786D01*
X42587Y-32786D01*
X42530Y-32814D01*
X42502Y-32843D01*
X42474Y-32899D01*
X42474Y-33068D01*
X42502Y-33124D01*
X42530Y-33152D01*
X42587Y-33180D01*
X42671Y-33180D01*
X41996Y-33152D02*
X42052Y-33180D01*
X42165Y-33180D01*
X42221Y-33152D01*
X42249Y-33096D01*
X42249Y-32871D01*
X42221Y-32814D01*
X42165Y-32786D01*
X42052Y-32786D01*
X41996Y-32814D01*
X41968Y-32871D01*
X41968Y-32927D01*
X42249Y-32983D01*
X41068Y-32871D02*
X41265Y-32871D01*
X41265Y-33180D02*
X41265Y-32589D01*
X40984Y-32589D01*
X40534Y-33152D02*
X40590Y-33180D01*
X40703Y-33180D01*
X40759Y-33152D01*
X40787Y-33096D01*
X40787Y-32871D01*
X40759Y-32814D01*
X40703Y-32786D01*
X40590Y-32786D01*
X40534Y-32814D01*
X40506Y-32871D01*
X40506Y-32927D01*
X40787Y-32983D01*
X40253Y-33180D02*
X40253Y-32786D01*
X40253Y-32899D02*
X40224Y-32843D01*
X40196Y-32814D01*
X40140Y-32786D01*
X40084Y-32786D01*
X39887Y-32786D02*
X39887Y-33180D01*
X39887Y-32843D02*
X39859Y-32814D01*
X39803Y-32786D01*
X39718Y-32786D01*
X39662Y-32814D01*
X39634Y-32871D01*
X39634Y-33180D01*
X39128Y-33152D02*
X39184Y-33180D01*
X39296Y-33180D01*
X39353Y-33152D01*
X39381Y-33096D01*
X39381Y-32871D01*
X39353Y-32814D01*
X39296Y-32786D01*
X39184Y-32786D01*
X39128Y-32814D01*
X39100Y-32871D01*
X39100Y-32927D01*
X39381Y-32983D01*
X38847Y-33180D02*
X38847Y-32786D01*
X38847Y-32899D02*
X38818Y-32843D01*
X38790Y-32814D01*
X38734Y-32786D01*
X38678Y-32786D01*
X43233Y-33591D02*
X43205Y-33562D01*
X43149Y-33534D01*
X43008Y-33534D01*
X42952Y-33562D01*
X42924Y-33591D01*
X42896Y-33647D01*
X42896Y-33703D01*
X42924Y-33787D01*
X43262Y-34125D01*
X42896Y-34125D01*
X42530Y-33534D02*
X42474Y-33534D01*
X42418Y-33562D01*
X42390Y-33591D01*
X42362Y-33647D01*
X42334Y-33759D01*
X42334Y-33900D01*
X42362Y-34012D01*
X42390Y-34069D01*
X42418Y-34097D01*
X42474Y-34125D01*
X42530Y-34125D01*
X42587Y-34097D01*
X42615Y-34069D01*
X42643Y-34012D01*
X42671Y-33900D01*
X42671Y-33759D01*
X42643Y-33647D01*
X42615Y-33591D01*
X42587Y-33562D01*
X42530Y-33534D01*
X41771Y-34125D02*
X42109Y-34125D01*
X41940Y-34125D02*
X41940Y-33534D01*
X41996Y-33619D01*
X42052Y-33675D01*
X42109Y-33703D01*
X41265Y-33731D02*
X41265Y-34125D01*
X41406Y-33506D02*
X41546Y-33928D01*
X41181Y-33928D01*
X40956Y-33900D02*
X40506Y-33900D01*
X40112Y-33534D02*
X40056Y-33534D01*
X40000Y-33562D01*
X39971Y-33591D01*
X39943Y-33647D01*
X39915Y-33759D01*
X39915Y-33900D01*
X39943Y-34012D01*
X39971Y-34069D01*
X40000Y-34097D01*
X40056Y-34125D01*
X40112Y-34125D01*
X40168Y-34097D01*
X40196Y-34069D01*
X40224Y-34012D01*
X40253Y-33900D01*
X40253Y-33759D01*
X40224Y-33647D01*
X40196Y-33591D01*
X40168Y-33562D01*
X40112Y-33534D01*
X39353Y-34125D02*
X39690Y-34125D01*
X39521Y-34125D02*
X39521Y-33534D01*
X39578Y-33619D01*
X39634Y-33675D01*
X39690Y-33703D01*
X39100Y-33900D02*
X38650Y-33900D01*
X38059Y-34125D02*
X38397Y-34125D01*
X38228Y-34125D02*
X38228Y-33534D01*
X38284Y-33619D01*
X38340Y-33675D01*
X38397Y-33703D01*
X37553Y-33731D02*
X37553Y-34125D01*
X37694Y-33506D02*
X37834Y-33928D01*
X37469Y-33928D01*
G54D13*
X32000Y-55000D02*
X32000Y-31000D01*
X56000Y-55000D02*
X32000Y-55000D01*
X56000Y-31000D02*
X56000Y-55000D01*
X32000Y-31000D02*
X56000Y-31000D01*
M02*
