%FSLAX34Y34*%
G04 Gerber Fmt 3.4, Leading zero omitted, Abs format*
G04 (created by PCBNEW (2013-12-26 BZR 4576)-product) date Tue 14 Jan 2014 08:15:22 PM EST*
%MOIN*%
G01*
G70*
G90*
G04 APERTURE LIST*
%ADD10C,0.005906*%
%ADD11C,0.003937*%
%ADD12R,0.156000X0.156000*%
%ADD13R,0.150000X0.150000*%
%ADD14R,0.057087X0.039370*%
%ADD15R,0.039370X0.057087*%
%ADD16R,0.055118X0.039370*%
%ADD17R,0.090551X0.061024*%
%ADD18R,0.068898X0.041339*%
%ADD19R,0.061024X0.090551*%
%ADD20R,0.015748X0.074803*%
%ADD21R,0.062992X0.055118*%
%ADD22R,0.070866X0.074803*%
%ADD23R,0.074803X0.074803*%
%ADD24R,0.295276X0.086614*%
%ADD25C,0.222441*%
%ADD26R,0.064961X0.064961*%
%ADD27C,0.064961*%
%ADD28R,0.051181X0.023622*%
%ADD29R,0.023622X0.051181*%
%ADD30C,0.059055*%
%ADD31R,0.043307X0.070866*%
%ADD32C,0.066929*%
%ADD33R,0.011811X0.057087*%
%ADD34R,0.057087X0.011811*%
%ADD35R,0.061024X0.023622*%
%ADD36R,0.106299X0.131890*%
%ADD37R,0.041339X0.023622*%
%ADD38R,0.096457X0.082677*%
%ADD39C,0.043307*%
%ADD40R,0.074803X0.051181*%
G04 APERTURE END LIST*
G54D10*
G54D11*
X32000Y-55000D02*
X32000Y-31000D01*
X56000Y-55000D02*
X32000Y-55000D01*
X56000Y-31000D02*
X56000Y-55000D01*
X32000Y-31000D02*
X56000Y-31000D01*
G54D12*
X40354Y-33661D03*
G54D13*
X43454Y-33661D03*
X37254Y-33661D03*
G54D14*
X36811Y-41318D03*
X36811Y-40570D03*
X44685Y-51397D03*
X44685Y-52145D03*
G54D15*
X38405Y-37204D03*
X39153Y-37204D03*
G54D14*
X42716Y-50570D03*
X42716Y-49822D03*
G54D15*
X41358Y-43110D03*
X40610Y-43110D03*
G54D14*
X43307Y-38799D03*
X43307Y-39547D03*
G54D15*
X34232Y-47047D03*
X33484Y-47047D03*
X39980Y-46850D03*
X40728Y-46850D03*
G54D14*
X37007Y-35255D03*
X37007Y-36003D03*
G54D15*
X42893Y-46850D03*
X42145Y-46850D03*
G54D14*
X46653Y-53366D03*
X46653Y-54114D03*
X40551Y-50413D03*
X40551Y-51161D03*
G54D15*
X37421Y-51181D03*
X38169Y-51181D03*
X38996Y-51181D03*
X39744Y-51181D03*
G54D14*
X36220Y-48838D03*
X36220Y-49586D03*
G54D15*
X37421Y-46850D03*
X38169Y-46850D03*
X49586Y-50787D03*
X48838Y-50787D03*
G54D14*
X46653Y-49783D03*
X46653Y-49035D03*
X36220Y-44074D03*
X36220Y-43326D03*
X36220Y-44901D03*
X36220Y-45649D03*
G54D16*
X52224Y-34645D03*
X50531Y-34645D03*
G54D15*
X51948Y-36023D03*
X51200Y-36023D03*
G54D14*
X51771Y-40925D03*
X51771Y-40177D03*
G54D15*
X53366Y-42913D03*
X54114Y-42913D03*
X53366Y-40944D03*
X54114Y-40944D03*
G54D14*
X54921Y-41161D03*
X54921Y-41909D03*
X54921Y-42933D03*
X54921Y-43681D03*
G54D15*
X54114Y-45866D03*
X53366Y-45866D03*
X47854Y-44291D03*
X48602Y-44291D03*
X47854Y-46259D03*
X48602Y-46259D03*
G54D17*
X51830Y-52165D03*
X50137Y-52165D03*
X46988Y-52165D03*
X48681Y-52165D03*
G54D18*
X44094Y-47086D03*
X44094Y-48267D03*
G54D17*
X45334Y-35433D03*
X43641Y-35433D03*
X48681Y-47834D03*
X46988Y-47834D03*
G54D19*
X51574Y-38838D03*
X51574Y-37145D03*
X50000Y-38838D03*
X50000Y-37145D03*
G54D17*
X53090Y-37401D03*
X54783Y-37401D03*
G54D20*
X43385Y-53169D03*
X43641Y-53169D03*
X43897Y-53169D03*
X44153Y-53169D03*
X44409Y-53169D03*
G54D21*
X42637Y-53405D03*
X45157Y-53405D03*
G54D22*
X42322Y-54330D03*
X45472Y-54330D03*
G54D23*
X43425Y-54330D03*
X44370Y-54330D03*
G54D24*
X34055Y-48228D03*
X34055Y-50590D03*
X51968Y-48228D03*
X51968Y-50590D03*
G54D25*
X54000Y-53000D03*
X54000Y-33000D03*
X34000Y-53000D03*
X34000Y-33000D03*
G54D26*
X34842Y-40551D03*
G54D27*
X33842Y-40551D03*
X34842Y-39551D03*
X33842Y-39551D03*
X34842Y-38551D03*
X33842Y-38551D03*
X34842Y-37551D03*
X33842Y-37551D03*
X34842Y-36551D03*
X33842Y-36551D03*
G54D26*
X55000Y-49000D03*
G54D27*
X55000Y-50000D03*
G54D26*
X42322Y-36968D03*
G54D27*
X41322Y-36968D03*
X40322Y-36968D03*
G54D26*
X47000Y-32000D03*
G54D27*
X48000Y-32000D03*
X49000Y-32000D03*
G54D26*
X44000Y-32000D03*
G54D27*
X45000Y-32000D03*
G54D26*
X51000Y-32000D03*
G54D27*
X52000Y-32000D03*
G54D28*
X46240Y-38011D03*
X46240Y-38759D03*
X47066Y-38385D03*
G54D29*
X48799Y-38169D03*
X48051Y-38169D03*
X48425Y-38996D03*
G54D28*
X46240Y-39586D03*
X46240Y-40334D03*
X47066Y-39960D03*
G54D14*
X43700Y-51397D03*
X43700Y-52145D03*
X42716Y-51397D03*
X42716Y-52145D03*
X44094Y-49822D03*
X44094Y-50570D03*
X45669Y-52145D03*
X45669Y-51397D03*
X36811Y-39547D03*
X36811Y-38799D03*
X36614Y-52775D03*
X36614Y-53523D03*
G54D15*
X47814Y-33267D03*
X47066Y-33267D03*
X48641Y-33267D03*
X49389Y-33267D03*
G54D14*
X43307Y-40374D03*
X43307Y-41122D03*
X45078Y-48208D03*
X45078Y-47460D03*
X40551Y-49586D03*
X40551Y-48838D03*
X36220Y-50413D03*
X36220Y-51161D03*
G54D15*
X37421Y-47834D03*
X38169Y-47834D03*
X38996Y-47834D03*
X39744Y-47834D03*
G54D14*
X46456Y-35059D03*
X46456Y-35807D03*
G54D15*
X46870Y-50787D03*
X47618Y-50787D03*
G54D14*
X47637Y-49783D03*
X47637Y-49035D03*
X41732Y-52145D03*
X41732Y-51397D03*
X41732Y-50570D03*
X41732Y-49822D03*
X45078Y-38208D03*
X45078Y-38956D03*
G54D15*
X48051Y-37204D03*
X48799Y-37204D03*
G54D14*
X49606Y-36003D03*
X49606Y-35255D03*
X48622Y-35255D03*
X48622Y-36003D03*
G54D15*
X53366Y-41929D03*
X54114Y-41929D03*
X53366Y-43897D03*
X54114Y-43897D03*
G54D14*
X54921Y-39389D03*
X54921Y-40137D03*
X50787Y-40925D03*
X50787Y-40177D03*
G54D15*
X53366Y-39960D03*
X54114Y-39960D03*
G54D14*
X54921Y-45452D03*
X54921Y-44704D03*
X51968Y-45688D03*
X51968Y-46437D03*
G54D15*
X53366Y-46850D03*
X54114Y-46850D03*
X47854Y-43307D03*
X48602Y-43307D03*
X48602Y-45275D03*
X47854Y-45275D03*
G54D14*
X50000Y-46437D03*
X50000Y-45688D03*
G54D15*
X46830Y-42322D03*
X46082Y-42322D03*
G54D30*
X45669Y-44094D03*
X46653Y-45078D03*
X45669Y-46062D03*
G54D15*
X46082Y-41338D03*
X46830Y-41338D03*
X48602Y-41338D03*
X47854Y-41338D03*
X48602Y-42322D03*
X47854Y-42322D03*
X54114Y-44881D03*
X53366Y-44881D03*
G54D31*
X33129Y-45905D03*
X33129Y-43464D03*
X34586Y-45905D03*
X34586Y-43464D03*
G54D30*
X49606Y-54330D03*
X50393Y-54330D03*
X51181Y-54330D03*
G54D32*
X52007Y-54330D03*
X48779Y-54330D03*
G54D26*
X45078Y-39960D03*
X53937Y-38779D03*
X49606Y-40157D03*
X55118Y-46653D03*
X48228Y-40157D03*
X44685Y-41929D03*
G54D29*
X44901Y-50610D03*
X45649Y-50610D03*
X45275Y-49783D03*
G54D33*
X38877Y-41830D03*
X39074Y-41830D03*
X39271Y-41830D03*
X39468Y-41830D03*
X39665Y-41830D03*
X39862Y-41830D03*
X40059Y-41830D03*
X40255Y-41830D03*
X40452Y-41830D03*
X40649Y-41830D03*
X40846Y-41830D03*
X41043Y-41830D03*
G54D34*
X41633Y-41240D03*
X41633Y-41043D03*
X41633Y-40846D03*
X41633Y-40649D03*
X41633Y-40452D03*
X41633Y-40255D03*
X41633Y-40059D03*
X41633Y-39862D03*
X41633Y-39665D03*
X41633Y-39468D03*
X41633Y-39271D03*
X41633Y-39074D03*
G54D33*
X41043Y-38484D03*
X40846Y-38484D03*
X40649Y-38484D03*
X40452Y-38484D03*
X40255Y-38484D03*
X40059Y-38484D03*
X39862Y-38484D03*
X39665Y-38484D03*
X39468Y-38484D03*
X39271Y-38484D03*
X39074Y-38484D03*
X38877Y-38484D03*
G54D34*
X38287Y-39074D03*
X38287Y-39271D03*
X38287Y-39468D03*
X38287Y-39665D03*
X38287Y-39862D03*
X38287Y-40059D03*
X38287Y-40255D03*
X38287Y-40452D03*
X38287Y-40649D03*
X38287Y-40846D03*
X38287Y-41043D03*
X38287Y-41240D03*
G54D35*
X39586Y-50159D03*
X39586Y-49659D03*
X39586Y-49159D03*
X39586Y-48659D03*
X37500Y-48659D03*
X37500Y-49159D03*
X37500Y-49659D03*
X37500Y-50159D03*
G54D36*
X38543Y-49409D03*
G54D28*
X45885Y-34035D03*
X45885Y-33287D03*
X45059Y-33661D03*
G54D37*
X48700Y-49035D03*
X48700Y-49409D03*
X48700Y-49783D03*
X49724Y-49783D03*
X49724Y-49035D03*
G54D35*
X49921Y-41807D03*
X49921Y-42307D03*
X49921Y-42807D03*
X49921Y-43307D03*
X49921Y-43807D03*
X49921Y-44307D03*
X49921Y-44807D03*
X52047Y-44807D03*
X52047Y-44307D03*
X52047Y-43807D03*
X52047Y-43307D03*
X52047Y-42807D03*
X52047Y-42307D03*
X52047Y-41807D03*
G54D38*
X40196Y-45275D03*
X42874Y-45275D03*
G54D30*
X40157Y-53543D03*
X38188Y-53543D03*
G54D39*
X40708Y-52559D03*
X37637Y-52559D03*
G54D40*
X37362Y-43405D03*
X37362Y-45570D03*
X38622Y-45570D03*
X38622Y-43405D03*
M02*
