%FSLAX34Y34*%
G04 Gerber Fmt 3.4, Leading zero omitted, Abs format*
G04 (created by PCBNEW (2013-12-26 BZR 4576)-product) date Tue 14 Jan 2014 08:15:22 PM EST*
%MOIN*%
G01*
G70*
G90*
G04 APERTURE LIST*
%ADD10C,0.005906*%
%ADD11C,0.003937*%
%ADD12C,0.222441*%
%ADD13R,0.064961X0.064961*%
%ADD14C,0.064961*%
%ADD15C,0.059055*%
%ADD16C,0.066929*%
%ADD17C,0.043307*%
G04 APERTURE END LIST*
G54D10*
G54D11*
X32000Y-55000D02*
X32000Y-31000D01*
X56000Y-55000D02*
X32000Y-55000D01*
X56000Y-31000D02*
X56000Y-55000D01*
X32000Y-31000D02*
X56000Y-31000D01*
G54D12*
X54000Y-53000D03*
X54000Y-33000D03*
X34000Y-53000D03*
X34000Y-33000D03*
G54D13*
X34842Y-40551D03*
G54D14*
X33842Y-40551D03*
X34842Y-39551D03*
X33842Y-39551D03*
X34842Y-38551D03*
X33842Y-38551D03*
X34842Y-37551D03*
X33842Y-37551D03*
X34842Y-36551D03*
X33842Y-36551D03*
G54D13*
X55000Y-49000D03*
G54D14*
X55000Y-50000D03*
G54D13*
X42322Y-36968D03*
G54D14*
X41322Y-36968D03*
X40322Y-36968D03*
G54D13*
X47000Y-32000D03*
G54D14*
X48000Y-32000D03*
X49000Y-32000D03*
G54D13*
X44000Y-32000D03*
G54D14*
X45000Y-32000D03*
G54D13*
X51000Y-32000D03*
G54D14*
X52000Y-32000D03*
G54D15*
X45669Y-44094D03*
X46653Y-45078D03*
X45669Y-46062D03*
X49606Y-54330D03*
X50393Y-54330D03*
X51181Y-54330D03*
G54D16*
X52007Y-54330D03*
X48779Y-54330D03*
G54D13*
X45078Y-39960D03*
X53937Y-38779D03*
X49606Y-40157D03*
X55118Y-46653D03*
X48228Y-40157D03*
X44685Y-41929D03*
G54D15*
X40157Y-53543D03*
X38188Y-53543D03*
G54D17*
X40708Y-52559D03*
X37637Y-52559D03*
M02*
