%FSLAX34Y34*%
G04 Gerber Fmt 3.4, Leading zero omitted, Abs format*
G04 (created by PCBNEW (2013-12-26 BZR 4576)-product) date Tue 14 Jan 2014 08:15:22 PM EST*
%MOIN*%
G01*
G70*
G90*
G04 APERTURE LIST*
%ADD10C,0.005906*%
%ADD11C,0.003937*%
%ADD12C,0.222441*%
%ADD13R,0.064961X0.064961*%
%ADD14C,0.064961*%
%ADD15C,0.059055*%
%ADD16C,0.066929*%
%ADD17C,0.043307*%
%ADD18C,0.035000*%
%ADD19C,0.010000*%
%ADD20C,0.015748*%
G04 APERTURE END LIST*
G54D10*
G54D11*
X32000Y-55000D02*
X32000Y-31000D01*
X56000Y-55000D02*
X32000Y-55000D01*
X56000Y-31000D02*
X56000Y-55000D01*
X32000Y-31000D02*
X56000Y-31000D01*
G54D12*
X54000Y-53000D03*
X54000Y-33000D03*
X34000Y-53000D03*
X34000Y-33000D03*
G54D13*
X34842Y-40551D03*
G54D14*
X33842Y-40551D03*
X34842Y-39551D03*
X33842Y-39551D03*
X34842Y-38551D03*
X33842Y-38551D03*
X34842Y-37551D03*
X33842Y-37551D03*
X34842Y-36551D03*
X33842Y-36551D03*
G54D13*
X55000Y-49000D03*
G54D14*
X55000Y-50000D03*
G54D13*
X42322Y-36968D03*
G54D14*
X41322Y-36968D03*
X40322Y-36968D03*
G54D13*
X47000Y-32000D03*
G54D14*
X48000Y-32000D03*
X49000Y-32000D03*
G54D13*
X44000Y-32000D03*
G54D14*
X45000Y-32000D03*
G54D13*
X51000Y-32000D03*
G54D14*
X52000Y-32000D03*
G54D15*
X45669Y-44094D03*
X46653Y-45078D03*
X45669Y-46062D03*
X49606Y-54330D03*
X50393Y-54330D03*
X51181Y-54330D03*
G54D16*
X52007Y-54330D03*
X48779Y-54330D03*
G54D13*
X45078Y-39960D03*
X53937Y-38779D03*
X49606Y-40157D03*
X55118Y-46653D03*
X48228Y-40157D03*
X44685Y-41929D03*
G54D15*
X40157Y-53543D03*
X38188Y-53543D03*
G54D17*
X40708Y-52559D03*
X37637Y-52559D03*
G54D18*
X52795Y-43818D03*
X55511Y-42440D03*
X34645Y-49645D03*
X34645Y-51496D03*
X50944Y-42283D03*
X46653Y-42992D03*
X47047Y-43937D03*
X47559Y-35944D03*
X48346Y-36732D03*
X48858Y-39370D03*
X51023Y-43070D03*
X46574Y-34094D03*
X43858Y-36338D03*
X38110Y-38622D03*
X36535Y-37677D03*
X37480Y-37165D03*
X48622Y-34055D03*
X44803Y-36692D03*
X47716Y-34015D03*
X44291Y-36653D03*
X44055Y-40314D03*
X40354Y-39448D03*
X41889Y-49212D03*
X41456Y-41889D03*
X42519Y-41023D03*
X42559Y-48267D03*
X39645Y-39488D03*
X42086Y-48818D03*
X42519Y-48779D03*
X39251Y-39251D03*
X38385Y-41811D03*
X38267Y-38149D03*
X50000Y-53543D03*
X45944Y-53110D03*
X41889Y-53110D03*
X41299Y-42519D03*
X40157Y-52125D03*
X39291Y-44094D03*
X40905Y-44094D03*
X47440Y-53937D03*
X40629Y-40196D03*
X40000Y-41023D03*
X42519Y-49409D03*
X41141Y-49960D03*
X44645Y-48858D03*
X40354Y-35039D03*
X50551Y-35984D03*
X50787Y-34015D03*
X47755Y-48425D03*
X44921Y-52716D03*
X36850Y-51102D03*
X37322Y-53858D03*
X32716Y-46850D03*
X35551Y-43346D03*
X35551Y-45629D03*
X38779Y-47086D03*
X40314Y-47874D03*
X40748Y-46181D03*
X47362Y-41811D03*
X46811Y-40433D03*
X43307Y-41732D03*
X41220Y-43740D03*
X43937Y-39527D03*
X36141Y-40551D03*
X39133Y-36535D03*
X52913Y-44881D03*
X52559Y-43307D03*
X39842Y-50629D03*
X41181Y-49212D03*
X52559Y-40236D03*
X52559Y-39251D03*
X52913Y-40944D03*
X50984Y-41417D03*
X54606Y-42401D03*
X52677Y-41811D03*
X55078Y-42440D03*
X53031Y-39251D03*
X54606Y-44173D03*
X52677Y-44291D03*
X51299Y-47086D03*
X49370Y-46889D03*
X47440Y-43307D03*
X47440Y-46259D03*
X50629Y-42716D03*
X50629Y-44566D03*
X49921Y-37952D03*
X46968Y-37874D03*
X46259Y-51377D03*
X46259Y-52165D03*
X41181Y-48700D03*
X36929Y-49645D03*
G54D19*
X52795Y-43818D02*
X53503Y-43110D01*
X53503Y-43110D02*
X54842Y-43110D01*
X54842Y-43110D02*
X55511Y-42440D01*
X34645Y-51496D02*
X34645Y-49645D01*
X46653Y-42992D02*
X47007Y-42992D01*
X47716Y-42283D02*
X50944Y-42283D01*
X47007Y-42992D02*
X47716Y-42283D01*
X46653Y-43031D02*
X46653Y-42992D01*
X47047Y-43425D02*
X46653Y-43031D01*
X47047Y-43937D02*
X47047Y-43425D01*
G54D20*
X48346Y-36732D02*
X47559Y-35944D01*
X51299Y-42165D02*
X50944Y-41811D01*
X49921Y-39370D02*
X48858Y-39370D01*
X51023Y-42677D02*
X51299Y-42401D01*
X51299Y-42401D02*
X51299Y-42165D01*
X50354Y-41220D02*
X50354Y-39803D01*
X50354Y-39803D02*
X49921Y-39370D01*
X51023Y-43070D02*
X51023Y-42677D01*
X50354Y-41496D02*
X50354Y-41220D01*
X50669Y-41811D02*
X50354Y-41496D01*
X50944Y-41811D02*
X50669Y-41811D01*
G54D19*
X46102Y-34094D02*
X46574Y-34094D01*
X43858Y-36338D02*
X46102Y-34094D01*
X35787Y-39606D02*
X34842Y-40551D01*
X35787Y-38897D02*
X35787Y-39606D01*
X36062Y-38622D02*
X35787Y-38897D01*
X38110Y-38622D02*
X36062Y-38622D01*
X35472Y-38921D02*
X34842Y-39551D01*
X35472Y-38740D02*
X35472Y-38921D01*
X36535Y-37677D02*
X35472Y-38740D01*
X36338Y-37322D02*
X37322Y-37322D01*
X35110Y-38551D02*
X36338Y-37322D01*
X34842Y-38551D02*
X35110Y-38551D01*
X37322Y-37322D02*
X37480Y-37165D01*
X47992Y-34685D02*
X48622Y-34055D01*
X46811Y-34685D02*
X47992Y-34685D01*
X44803Y-36692D02*
X46811Y-34685D01*
X47283Y-34448D02*
X47716Y-34015D01*
X46496Y-34448D02*
X47283Y-34448D01*
X44291Y-36653D02*
X46496Y-34448D01*
X41220Y-40314D02*
X44055Y-40314D01*
X40354Y-39448D02*
X41220Y-40314D01*
X41771Y-48031D02*
X41771Y-42204D01*
X41889Y-49212D02*
X41771Y-49094D01*
X41771Y-49094D02*
X41771Y-48031D01*
X41771Y-42204D02*
X41456Y-41889D01*
X42401Y-41141D02*
X42519Y-41023D01*
X42401Y-48110D02*
X42401Y-41141D01*
X42559Y-48267D02*
X42401Y-48110D01*
X39724Y-40275D02*
X39645Y-40196D01*
X39645Y-40196D02*
X39645Y-39488D01*
X40787Y-41338D02*
X39842Y-40393D01*
X41771Y-41338D02*
X40787Y-41338D01*
X39842Y-40393D02*
X39724Y-40275D01*
X41968Y-41535D02*
X41771Y-41338D01*
X41968Y-48700D02*
X41968Y-41968D01*
X42086Y-48818D02*
X41968Y-48700D01*
X41968Y-41968D02*
X41968Y-41535D01*
X42204Y-42047D02*
X42204Y-41417D01*
X40275Y-40314D02*
X40118Y-40157D01*
X42519Y-48779D02*
X42204Y-48464D01*
X42204Y-48464D02*
X42204Y-42047D01*
X41929Y-41141D02*
X41102Y-41141D01*
X41102Y-41141D02*
X40275Y-40314D01*
X39370Y-39133D02*
X39251Y-39251D01*
X39881Y-39133D02*
X39370Y-39133D01*
X40000Y-39251D02*
X39881Y-39133D01*
X40000Y-40039D02*
X40000Y-39251D01*
X40118Y-40157D02*
X40000Y-40039D01*
X42204Y-41417D02*
X41929Y-41141D01*
X38385Y-41811D02*
X38543Y-41653D01*
X38543Y-41653D02*
X38543Y-38425D01*
X38543Y-38425D02*
X38267Y-38149D01*
G54D20*
X51181Y-54330D02*
X51181Y-53937D01*
X51181Y-53937D02*
X50787Y-53543D01*
X50787Y-53543D02*
X50000Y-53543D01*
X41889Y-53110D02*
X45944Y-53110D01*
G54D19*
X41535Y-42755D02*
X41299Y-42519D01*
X41535Y-50748D02*
X41535Y-42755D01*
X40157Y-52125D02*
X41535Y-50748D01*
X40905Y-44094D02*
X39291Y-44094D01*
X39842Y-50629D02*
X41181Y-49291D01*
X41181Y-49291D02*
X41181Y-49212D01*
X52559Y-39251D02*
X52559Y-40236D01*
X51456Y-40944D02*
X52913Y-40944D01*
X50984Y-41417D02*
X51456Y-40944D01*
X54606Y-42401D02*
X54015Y-41811D01*
X54015Y-41811D02*
X52677Y-41811D01*
X55078Y-42440D02*
X55078Y-40984D01*
X55078Y-40984D02*
X53346Y-39251D01*
X53346Y-39251D02*
X53031Y-39251D01*
X52795Y-44173D02*
X54606Y-44173D01*
X52677Y-44291D02*
X52795Y-44173D01*
X51299Y-47086D02*
X49566Y-47086D01*
X49370Y-46889D02*
X49566Y-47086D01*
X47440Y-46259D02*
X47440Y-43307D01*
X50629Y-44566D02*
X50629Y-42716D01*
X47047Y-37952D02*
X49921Y-37952D01*
X46968Y-37874D02*
X47047Y-37952D01*
X46259Y-52165D02*
X46259Y-51377D01*
X37874Y-48700D02*
X41181Y-48700D01*
X36929Y-49645D02*
X37874Y-48700D01*
G54D10*
G36*
X55450Y-54450D02*
X55262Y-54450D01*
X55262Y-52750D01*
X55070Y-52285D01*
X54715Y-51930D01*
X54252Y-51738D01*
X53750Y-51737D01*
X53285Y-51929D01*
X52930Y-52284D01*
X52738Y-52747D01*
X52737Y-53249D01*
X52929Y-53714D01*
X53284Y-54069D01*
X53747Y-54261D01*
X54249Y-54262D01*
X54714Y-54070D01*
X55069Y-53715D01*
X55261Y-53252D01*
X55262Y-52750D01*
X55262Y-54450D01*
X52483Y-54450D01*
X52492Y-54427D01*
X52492Y-54234D01*
X52418Y-54056D01*
X52282Y-53920D01*
X52104Y-53846D01*
X51911Y-53845D01*
X51733Y-53919D01*
X51624Y-54028D01*
X51624Y-47022D01*
X51574Y-46902D01*
X51483Y-46811D01*
X51364Y-46761D01*
X51234Y-46761D01*
X51115Y-46810D01*
X51039Y-46886D01*
X49695Y-46886D01*
X49695Y-46825D01*
X49645Y-46705D01*
X49554Y-46614D01*
X49435Y-46564D01*
X49305Y-46564D01*
X49186Y-46614D01*
X49094Y-46705D01*
X49045Y-46824D01*
X49045Y-46954D01*
X49094Y-47073D01*
X49185Y-47165D01*
X49305Y-47214D01*
X49412Y-47214D01*
X49425Y-47228D01*
X49490Y-47271D01*
X49566Y-47286D01*
X51039Y-47286D01*
X51114Y-47361D01*
X51234Y-47411D01*
X51363Y-47411D01*
X51483Y-47362D01*
X51574Y-47270D01*
X51624Y-47151D01*
X51624Y-47022D01*
X51624Y-54028D01*
X51597Y-54055D01*
X51573Y-54113D01*
X51558Y-54078D01*
X51433Y-53953D01*
X51409Y-53943D01*
X51409Y-53937D01*
X51392Y-53849D01*
X51342Y-53775D01*
X50949Y-53381D01*
X50874Y-53331D01*
X50787Y-53314D01*
X50230Y-53314D01*
X50184Y-53267D01*
X50064Y-53218D01*
X49935Y-53218D01*
X49816Y-53267D01*
X49724Y-53358D01*
X49675Y-53478D01*
X49674Y-53607D01*
X49724Y-53727D01*
X49815Y-53818D01*
X49935Y-53868D01*
X50064Y-53868D01*
X50183Y-53818D01*
X50230Y-53772D01*
X50692Y-53772D01*
X50901Y-53980D01*
X50803Y-54078D01*
X50787Y-54117D01*
X50771Y-54078D01*
X50646Y-53953D01*
X50482Y-53885D01*
X50305Y-53885D01*
X50141Y-53953D01*
X50016Y-54078D01*
X50000Y-54117D01*
X49984Y-54078D01*
X49858Y-53953D01*
X49695Y-53885D01*
X49518Y-53885D01*
X49354Y-53953D01*
X49229Y-54078D01*
X49214Y-54113D01*
X49190Y-54056D01*
X49054Y-53920D01*
X48876Y-53846D01*
X48683Y-53845D01*
X48505Y-53919D01*
X48368Y-54055D01*
X48294Y-54233D01*
X48294Y-54426D01*
X48304Y-54450D01*
X47098Y-54450D01*
X47098Y-44990D01*
X47031Y-44826D01*
X46906Y-44701D01*
X46742Y-44633D01*
X46565Y-44633D01*
X46401Y-44701D01*
X46276Y-44826D01*
X46208Y-44989D01*
X46208Y-45166D01*
X46275Y-45330D01*
X46400Y-45456D01*
X46564Y-45523D01*
X46741Y-45524D01*
X46905Y-45456D01*
X47030Y-45331D01*
X47098Y-45167D01*
X47098Y-44990D01*
X47098Y-54450D01*
X46584Y-54450D01*
X46584Y-52100D01*
X46535Y-51981D01*
X46459Y-51905D01*
X46459Y-51637D01*
X46535Y-51562D01*
X46584Y-51442D01*
X46584Y-51313D01*
X46535Y-51194D01*
X46444Y-51102D01*
X46324Y-51053D01*
X46195Y-51052D01*
X46114Y-51086D01*
X46114Y-45974D01*
X46114Y-44006D01*
X46046Y-43842D01*
X45921Y-43717D01*
X45758Y-43649D01*
X45581Y-43649D01*
X45553Y-43660D01*
X45553Y-40315D01*
X45553Y-40255D01*
X45553Y-39605D01*
X45530Y-39550D01*
X45488Y-39508D01*
X45433Y-39485D01*
X45373Y-39485D01*
X44724Y-39485D01*
X44668Y-39508D01*
X44626Y-39550D01*
X44603Y-39605D01*
X44603Y-39665D01*
X44603Y-40315D01*
X44626Y-40370D01*
X44668Y-40412D01*
X44724Y-40435D01*
X44783Y-40435D01*
X45433Y-40435D01*
X45488Y-40412D01*
X45530Y-40370D01*
X45553Y-40315D01*
X45553Y-43660D01*
X45417Y-43716D01*
X45292Y-43841D01*
X45224Y-44005D01*
X45223Y-44182D01*
X45291Y-44346D01*
X45416Y-44471D01*
X45580Y-44539D01*
X45757Y-44539D01*
X45921Y-44472D01*
X46046Y-44347D01*
X46114Y-44183D01*
X46114Y-44006D01*
X46114Y-45974D01*
X46046Y-45811D01*
X45921Y-45685D01*
X45758Y-45617D01*
X45581Y-45617D01*
X45417Y-45685D01*
X45292Y-45810D01*
X45224Y-45974D01*
X45223Y-46151D01*
X45291Y-46314D01*
X45416Y-46440D01*
X45580Y-46508D01*
X45757Y-46508D01*
X45921Y-46440D01*
X46046Y-46315D01*
X46114Y-46151D01*
X46114Y-45974D01*
X46114Y-51086D01*
X46075Y-51102D01*
X45984Y-51193D01*
X45934Y-51313D01*
X45934Y-51442D01*
X45984Y-51561D01*
X46059Y-51637D01*
X46059Y-51905D01*
X45984Y-51981D01*
X45934Y-52100D01*
X45934Y-52229D01*
X45984Y-52349D01*
X46075Y-52440D01*
X46194Y-52490D01*
X46324Y-52490D01*
X46443Y-52441D01*
X46535Y-52349D01*
X46584Y-52230D01*
X46584Y-52100D01*
X46584Y-54450D01*
X46269Y-54450D01*
X46269Y-53045D01*
X46220Y-52926D01*
X46129Y-52834D01*
X46009Y-52785D01*
X45880Y-52785D01*
X45761Y-52834D01*
X45714Y-52881D01*
X45159Y-52881D01*
X45159Y-42283D01*
X45159Y-42224D01*
X45159Y-41574D01*
X45137Y-41519D01*
X45094Y-41477D01*
X45039Y-41454D01*
X44980Y-41454D01*
X44380Y-41454D01*
X44380Y-40250D01*
X44330Y-40131D01*
X44239Y-40039D01*
X44120Y-39990D01*
X43990Y-39989D01*
X43871Y-40039D01*
X43795Y-40114D01*
X42797Y-40114D01*
X42797Y-37323D01*
X42797Y-37263D01*
X42797Y-36613D01*
X42774Y-36558D01*
X42732Y-36516D01*
X42677Y-36493D01*
X42617Y-36493D01*
X41968Y-36493D01*
X41913Y-36516D01*
X41870Y-36558D01*
X41848Y-36613D01*
X41848Y-36673D01*
X41848Y-37323D01*
X41870Y-37378D01*
X41913Y-37420D01*
X41968Y-37443D01*
X42027Y-37443D01*
X42677Y-37443D01*
X42732Y-37420D01*
X42774Y-37378D01*
X42797Y-37323D01*
X42797Y-40114D01*
X41797Y-40114D01*
X41797Y-36874D01*
X41725Y-36699D01*
X41592Y-36566D01*
X41417Y-36493D01*
X41228Y-36493D01*
X41054Y-36565D01*
X40920Y-36699D01*
X40848Y-36873D01*
X40847Y-37062D01*
X40920Y-37237D01*
X41053Y-37370D01*
X41227Y-37443D01*
X41416Y-37443D01*
X41591Y-37371D01*
X41725Y-37237D01*
X41797Y-37063D01*
X41797Y-36874D01*
X41797Y-40114D01*
X41303Y-40114D01*
X40800Y-39611D01*
X40800Y-36887D01*
X40732Y-36711D01*
X40717Y-36688D01*
X40642Y-36656D01*
X40635Y-36663D01*
X40635Y-36649D01*
X40603Y-36573D01*
X40430Y-36496D01*
X40242Y-36491D01*
X40065Y-36558D01*
X40042Y-36573D01*
X40010Y-36649D01*
X40322Y-36961D01*
X40635Y-36649D01*
X40635Y-36663D01*
X40329Y-36968D01*
X40642Y-37280D01*
X40717Y-37248D01*
X40794Y-37076D01*
X40800Y-36887D01*
X40800Y-39611D01*
X40679Y-39490D01*
X40679Y-39384D01*
X40635Y-39277D01*
X40635Y-37287D01*
X40322Y-36975D01*
X40315Y-36982D01*
X40315Y-36968D01*
X40003Y-36656D01*
X39928Y-36688D01*
X39850Y-36860D01*
X39845Y-37049D01*
X39912Y-37225D01*
X39928Y-37248D01*
X40003Y-37280D01*
X40315Y-36968D01*
X40315Y-36982D01*
X40010Y-37287D01*
X40042Y-37363D01*
X40214Y-37440D01*
X40403Y-37445D01*
X40580Y-37378D01*
X40603Y-37363D01*
X40635Y-37287D01*
X40635Y-39277D01*
X40630Y-39264D01*
X40538Y-39173D01*
X40419Y-39123D01*
X40289Y-39123D01*
X40180Y-39169D01*
X40141Y-39110D01*
X40023Y-38992D01*
X39958Y-38949D01*
X39881Y-38933D01*
X39370Y-38933D01*
X39345Y-38938D01*
X39316Y-38927D01*
X39187Y-38926D01*
X39068Y-38976D01*
X38976Y-39067D01*
X38927Y-39187D01*
X38926Y-39316D01*
X38976Y-39435D01*
X39067Y-39527D01*
X39187Y-39576D01*
X39316Y-39577D01*
X39328Y-39571D01*
X39369Y-39672D01*
X39445Y-39747D01*
X39445Y-40196D01*
X39460Y-40273D01*
X39504Y-40338D01*
X39582Y-40417D01*
X39701Y-40535D01*
X40645Y-41480D01*
X40710Y-41523D01*
X40787Y-41538D01*
X41688Y-41538D01*
X41768Y-41618D01*
X41768Y-41793D01*
X41732Y-41705D01*
X41641Y-41614D01*
X41521Y-41564D01*
X41392Y-41564D01*
X41272Y-41614D01*
X41181Y-41705D01*
X41131Y-41824D01*
X41131Y-41954D01*
X41181Y-42073D01*
X41272Y-42165D01*
X41343Y-42194D01*
X41234Y-42194D01*
X41115Y-42244D01*
X41023Y-42335D01*
X40974Y-42454D01*
X40974Y-42584D01*
X41023Y-42703D01*
X41114Y-42795D01*
X41234Y-42844D01*
X41335Y-42844D01*
X41335Y-48412D01*
X41246Y-48375D01*
X41230Y-48375D01*
X41230Y-44030D01*
X41181Y-43910D01*
X41089Y-43819D01*
X40970Y-43769D01*
X40841Y-43769D01*
X40721Y-43818D01*
X40645Y-43894D01*
X39550Y-43894D01*
X39475Y-43819D01*
X39356Y-43769D01*
X39226Y-43769D01*
X39107Y-43818D01*
X39015Y-43910D01*
X38966Y-44029D01*
X38966Y-44158D01*
X39015Y-44278D01*
X39107Y-44369D01*
X39226Y-44419D01*
X39355Y-44419D01*
X39475Y-44370D01*
X39551Y-44294D01*
X40645Y-44294D01*
X40721Y-44369D01*
X40840Y-44419D01*
X40969Y-44419D01*
X41089Y-44370D01*
X41180Y-44278D01*
X41230Y-44159D01*
X41230Y-44030D01*
X41230Y-48375D01*
X41116Y-48375D01*
X40997Y-48425D01*
X40921Y-48500D01*
X38743Y-48500D01*
X38743Y-41653D01*
X38743Y-38425D01*
X38728Y-38348D01*
X38728Y-38348D01*
X38713Y-38327D01*
X38684Y-38283D01*
X38684Y-38283D01*
X38592Y-38191D01*
X38592Y-38085D01*
X38543Y-37965D01*
X38452Y-37874D01*
X38332Y-37824D01*
X38203Y-37824D01*
X38083Y-37873D01*
X37992Y-37965D01*
X37942Y-38084D01*
X37942Y-38213D01*
X37987Y-38321D01*
X37926Y-38346D01*
X37850Y-38422D01*
X36073Y-38422D01*
X36493Y-38002D01*
X36599Y-38002D01*
X36719Y-37952D01*
X36810Y-37861D01*
X36860Y-37742D01*
X36860Y-37612D01*
X36823Y-37522D01*
X37322Y-37522D01*
X37399Y-37507D01*
X37425Y-37490D01*
X37544Y-37490D01*
X37664Y-37441D01*
X37755Y-37349D01*
X37805Y-37230D01*
X37805Y-37100D01*
X37755Y-36981D01*
X37664Y-36889D01*
X37545Y-36840D01*
X37415Y-36840D01*
X37296Y-36889D01*
X37204Y-36981D01*
X37155Y-37100D01*
X37155Y-37122D01*
X36338Y-37122D01*
X36274Y-37135D01*
X36262Y-37138D01*
X36197Y-37181D01*
X35317Y-38061D01*
X35317Y-37457D01*
X35317Y-36457D01*
X35262Y-36324D01*
X35262Y-32750D01*
X35070Y-32285D01*
X34715Y-31930D01*
X34252Y-31738D01*
X33750Y-31737D01*
X33285Y-31929D01*
X32930Y-32284D01*
X32738Y-32747D01*
X32737Y-33249D01*
X32929Y-33714D01*
X33284Y-34069D01*
X33747Y-34261D01*
X34249Y-34262D01*
X34714Y-34070D01*
X35069Y-33715D01*
X35261Y-33252D01*
X35262Y-32750D01*
X35262Y-36324D01*
X35245Y-36282D01*
X35111Y-36148D01*
X34937Y-36076D01*
X34748Y-36076D01*
X34573Y-36148D01*
X34440Y-36281D01*
X34367Y-36456D01*
X34367Y-36645D01*
X34439Y-36819D01*
X34573Y-36953D01*
X34747Y-37025D01*
X34936Y-37026D01*
X35111Y-36953D01*
X35244Y-36820D01*
X35317Y-36646D01*
X35317Y-36457D01*
X35317Y-37457D01*
X35245Y-37282D01*
X35111Y-37148D01*
X34937Y-37076D01*
X34748Y-37076D01*
X34573Y-37148D01*
X34440Y-37281D01*
X34367Y-37456D01*
X34367Y-37645D01*
X34439Y-37819D01*
X34573Y-37953D01*
X34747Y-38025D01*
X34936Y-38026D01*
X35111Y-37953D01*
X35244Y-37820D01*
X35317Y-37646D01*
X35317Y-37457D01*
X35317Y-38061D01*
X35170Y-38207D01*
X35111Y-38148D01*
X34937Y-38076D01*
X34748Y-38076D01*
X34573Y-38148D01*
X34440Y-38281D01*
X34367Y-38456D01*
X34367Y-38645D01*
X34439Y-38819D01*
X34573Y-38953D01*
X34747Y-39025D01*
X34936Y-39026D01*
X35111Y-38953D01*
X35244Y-38820D01*
X35272Y-38753D01*
X35272Y-38838D01*
X35005Y-39104D01*
X34937Y-39076D01*
X34748Y-39076D01*
X34573Y-39148D01*
X34440Y-39281D01*
X34367Y-39456D01*
X34367Y-39645D01*
X34439Y-39819D01*
X34573Y-39953D01*
X34747Y-40025D01*
X34936Y-40026D01*
X35111Y-39953D01*
X35244Y-39820D01*
X35317Y-39646D01*
X35317Y-39457D01*
X35288Y-39387D01*
X35587Y-39089D01*
X35587Y-39523D01*
X35034Y-40076D01*
X34487Y-40076D01*
X34432Y-40099D01*
X34390Y-40141D01*
X34367Y-40196D01*
X34367Y-40256D01*
X34367Y-40905D01*
X34390Y-40960D01*
X34432Y-41003D01*
X34487Y-41025D01*
X34547Y-41025D01*
X35197Y-41025D01*
X35252Y-41003D01*
X35294Y-40960D01*
X35317Y-40905D01*
X35317Y-40846D01*
X35317Y-40359D01*
X35928Y-39747D01*
X35928Y-39747D01*
X35972Y-39682D01*
X35987Y-39606D01*
X35987Y-38980D01*
X36145Y-38822D01*
X37850Y-38822D01*
X37925Y-38897D01*
X38045Y-38946D01*
X38174Y-38947D01*
X38294Y-38897D01*
X38343Y-38848D01*
X38343Y-41485D01*
X38321Y-41485D01*
X38201Y-41535D01*
X38110Y-41626D01*
X38060Y-41746D01*
X38060Y-41875D01*
X38110Y-41994D01*
X38201Y-42086D01*
X38320Y-42135D01*
X38450Y-42136D01*
X38569Y-42086D01*
X38661Y-41995D01*
X38710Y-41875D01*
X38710Y-41755D01*
X38728Y-41730D01*
X38728Y-41730D01*
X38730Y-41717D01*
X38743Y-41653D01*
X38743Y-41653D01*
X38743Y-48500D01*
X37874Y-48500D01*
X37797Y-48516D01*
X37732Y-48559D01*
X36971Y-49320D01*
X36864Y-49320D01*
X36745Y-49369D01*
X36653Y-49461D01*
X36604Y-49580D01*
X36604Y-49710D01*
X36653Y-49829D01*
X36744Y-49921D01*
X36864Y-49970D01*
X36993Y-49970D01*
X37112Y-49921D01*
X37204Y-49830D01*
X37254Y-49710D01*
X37254Y-49603D01*
X37956Y-48900D01*
X40921Y-48900D01*
X40977Y-48956D01*
X40905Y-49028D01*
X40856Y-49147D01*
X40856Y-49276D01*
X40872Y-49317D01*
X39884Y-50304D01*
X39778Y-50304D01*
X39658Y-50354D01*
X39567Y-50445D01*
X39517Y-50564D01*
X39517Y-50694D01*
X39566Y-50813D01*
X39658Y-50905D01*
X39777Y-50954D01*
X39906Y-50954D01*
X40026Y-50905D01*
X40117Y-50814D01*
X40167Y-50694D01*
X40167Y-50587D01*
X41217Y-49537D01*
X41245Y-49537D01*
X41335Y-49500D01*
X41335Y-50665D01*
X40199Y-51801D01*
X40093Y-51800D01*
X39973Y-51850D01*
X39882Y-51941D01*
X39832Y-52061D01*
X39832Y-52190D01*
X39881Y-52309D01*
X39973Y-52401D01*
X40092Y-52450D01*
X40221Y-52451D01*
X40341Y-52401D01*
X40432Y-52310D01*
X40482Y-52190D01*
X40482Y-52083D01*
X41676Y-50889D01*
X41676Y-50889D01*
X41705Y-50846D01*
X41720Y-50824D01*
X41720Y-50824D01*
X41735Y-50748D01*
X41735Y-50748D01*
X41735Y-49500D01*
X41824Y-49537D01*
X41954Y-49537D01*
X42073Y-49488D01*
X42165Y-49396D01*
X42214Y-49277D01*
X42214Y-49148D01*
X42203Y-49122D01*
X42270Y-49094D01*
X42322Y-49042D01*
X42335Y-49054D01*
X42454Y-49104D01*
X42584Y-49104D01*
X42703Y-49055D01*
X42795Y-48963D01*
X42844Y-48844D01*
X42844Y-48715D01*
X42795Y-48595D01*
X42743Y-48543D01*
X42834Y-48452D01*
X42883Y-48332D01*
X42884Y-48203D01*
X42834Y-48083D01*
X42743Y-47992D01*
X42623Y-47942D01*
X42601Y-47942D01*
X42601Y-41341D01*
X42703Y-41299D01*
X42795Y-41207D01*
X42844Y-41088D01*
X42844Y-40959D01*
X42795Y-40839D01*
X42704Y-40748D01*
X42584Y-40698D01*
X42455Y-40698D01*
X42335Y-40747D01*
X42244Y-40839D01*
X42194Y-40958D01*
X42194Y-41087D01*
X42206Y-41116D01*
X42203Y-41133D01*
X42070Y-41000D01*
X42005Y-40956D01*
X41929Y-40941D01*
X41185Y-40941D01*
X40417Y-40173D01*
X40417Y-40173D01*
X40417Y-40173D01*
X40259Y-40016D01*
X40200Y-39956D01*
X40200Y-39736D01*
X40289Y-39773D01*
X40396Y-39773D01*
X41079Y-40456D01*
X41143Y-40499D01*
X41220Y-40514D01*
X43795Y-40514D01*
X43870Y-40590D01*
X43990Y-40639D01*
X44119Y-40640D01*
X44238Y-40590D01*
X44330Y-40499D01*
X44380Y-40379D01*
X44380Y-40250D01*
X44380Y-41454D01*
X44330Y-41454D01*
X44275Y-41477D01*
X44233Y-41519D01*
X44210Y-41574D01*
X44210Y-41634D01*
X44210Y-42283D01*
X44233Y-42338D01*
X44275Y-42381D01*
X44330Y-42403D01*
X44390Y-42403D01*
X45039Y-42403D01*
X45094Y-42381D01*
X45137Y-42338D01*
X45159Y-42283D01*
X45159Y-52881D01*
X42120Y-52881D01*
X42074Y-52834D01*
X41954Y-52785D01*
X41825Y-52785D01*
X41705Y-52834D01*
X41614Y-52925D01*
X41564Y-53045D01*
X41564Y-53174D01*
X41614Y-53294D01*
X41705Y-53385D01*
X41824Y-53435D01*
X41954Y-53435D01*
X42073Y-53385D01*
X42120Y-53338D01*
X45714Y-53338D01*
X45760Y-53385D01*
X45879Y-53435D01*
X46009Y-53435D01*
X46128Y-53385D01*
X46220Y-53294D01*
X46269Y-53175D01*
X46269Y-53045D01*
X46269Y-54450D01*
X41075Y-54450D01*
X41075Y-52486D01*
X41019Y-52351D01*
X40916Y-52248D01*
X40781Y-52192D01*
X40636Y-52192D01*
X40501Y-52248D01*
X40398Y-52351D01*
X40342Y-52485D01*
X40342Y-52631D01*
X40397Y-52766D01*
X40500Y-52869D01*
X40635Y-52925D01*
X40781Y-52925D01*
X40916Y-52869D01*
X41019Y-52766D01*
X41075Y-52632D01*
X41075Y-52486D01*
X41075Y-54450D01*
X40602Y-54450D01*
X40602Y-53455D01*
X40535Y-53291D01*
X40410Y-53166D01*
X40246Y-53098D01*
X40069Y-53097D01*
X39905Y-53165D01*
X39780Y-53290D01*
X39712Y-53454D01*
X39712Y-53631D01*
X39779Y-53795D01*
X39904Y-53920D01*
X40068Y-53988D01*
X40245Y-53988D01*
X40409Y-53921D01*
X40534Y-53795D01*
X40602Y-53632D01*
X40602Y-53455D01*
X40602Y-54450D01*
X38634Y-54450D01*
X38634Y-53455D01*
X38566Y-53291D01*
X38441Y-53166D01*
X38277Y-53098D01*
X38100Y-53097D01*
X38004Y-53137D01*
X38004Y-52486D01*
X37948Y-52351D01*
X37845Y-52248D01*
X37711Y-52192D01*
X37565Y-52192D01*
X37430Y-52248D01*
X37327Y-52351D01*
X37271Y-52485D01*
X37271Y-52631D01*
X37326Y-52766D01*
X37429Y-52869D01*
X37564Y-52925D01*
X37710Y-52925D01*
X37845Y-52869D01*
X37948Y-52766D01*
X38004Y-52632D01*
X38004Y-52486D01*
X38004Y-53137D01*
X37937Y-53165D01*
X37811Y-53290D01*
X37743Y-53454D01*
X37743Y-53631D01*
X37811Y-53795D01*
X37936Y-53920D01*
X38100Y-53988D01*
X38277Y-53988D01*
X38440Y-53921D01*
X38566Y-53795D01*
X38634Y-53632D01*
X38634Y-53455D01*
X38634Y-54450D01*
X35262Y-54450D01*
X35262Y-52750D01*
X35070Y-52285D01*
X34970Y-52185D01*
X34970Y-51431D01*
X34921Y-51312D01*
X34845Y-51236D01*
X34845Y-49905D01*
X34921Y-49830D01*
X34970Y-49710D01*
X34970Y-49581D01*
X34921Y-49461D01*
X34830Y-49370D01*
X34710Y-49320D01*
X34581Y-49320D01*
X34461Y-49369D01*
X34370Y-49461D01*
X34320Y-49580D01*
X34320Y-49710D01*
X34369Y-49829D01*
X34445Y-49905D01*
X34445Y-51236D01*
X34370Y-51311D01*
X34320Y-51431D01*
X34320Y-51560D01*
X34369Y-51679D01*
X34461Y-51771D01*
X34580Y-51821D01*
X34710Y-51821D01*
X34829Y-51771D01*
X34921Y-51680D01*
X34970Y-51560D01*
X34970Y-51431D01*
X34970Y-52185D01*
X34715Y-51930D01*
X34319Y-51766D01*
X34319Y-40470D01*
X34317Y-40464D01*
X34317Y-39457D01*
X34317Y-38457D01*
X34317Y-37457D01*
X34317Y-36457D01*
X34245Y-36282D01*
X34111Y-36148D01*
X33937Y-36076D01*
X33748Y-36076D01*
X33573Y-36148D01*
X33440Y-36281D01*
X33367Y-36456D01*
X33367Y-36645D01*
X33439Y-36819D01*
X33573Y-36953D01*
X33747Y-37025D01*
X33936Y-37026D01*
X34111Y-36953D01*
X34244Y-36820D01*
X34317Y-36646D01*
X34317Y-36457D01*
X34317Y-37457D01*
X34245Y-37282D01*
X34111Y-37148D01*
X33937Y-37076D01*
X33748Y-37076D01*
X33573Y-37148D01*
X33440Y-37281D01*
X33367Y-37456D01*
X33367Y-37645D01*
X33439Y-37819D01*
X33573Y-37953D01*
X33747Y-38025D01*
X33936Y-38026D01*
X34111Y-37953D01*
X34244Y-37820D01*
X34317Y-37646D01*
X34317Y-37457D01*
X34317Y-38457D01*
X34245Y-38282D01*
X34111Y-38148D01*
X33937Y-38076D01*
X33748Y-38076D01*
X33573Y-38148D01*
X33440Y-38281D01*
X33367Y-38456D01*
X33367Y-38645D01*
X33439Y-38819D01*
X33573Y-38953D01*
X33747Y-39025D01*
X33936Y-39026D01*
X34111Y-38953D01*
X34244Y-38820D01*
X34317Y-38646D01*
X34317Y-38457D01*
X34317Y-39457D01*
X34245Y-39282D01*
X34111Y-39148D01*
X33937Y-39076D01*
X33748Y-39076D01*
X33573Y-39148D01*
X33440Y-39281D01*
X33367Y-39456D01*
X33367Y-39645D01*
X33439Y-39819D01*
X33573Y-39953D01*
X33747Y-40025D01*
X33936Y-40026D01*
X34111Y-39953D01*
X34244Y-39820D01*
X34317Y-39646D01*
X34317Y-39457D01*
X34317Y-40464D01*
X34252Y-40293D01*
X34237Y-40270D01*
X34161Y-40238D01*
X34154Y-40246D01*
X34154Y-40231D01*
X34123Y-40156D01*
X33950Y-40079D01*
X33761Y-40073D01*
X33585Y-40141D01*
X33562Y-40156D01*
X33530Y-40231D01*
X33842Y-40544D01*
X34154Y-40231D01*
X34154Y-40246D01*
X33849Y-40551D01*
X34161Y-40863D01*
X34237Y-40831D01*
X34314Y-40659D01*
X34319Y-40470D01*
X34319Y-51766D01*
X34252Y-51738D01*
X34154Y-51737D01*
X34154Y-40870D01*
X33842Y-40558D01*
X33835Y-40565D01*
X33835Y-40551D01*
X33523Y-40238D01*
X33447Y-40270D01*
X33370Y-40443D01*
X33365Y-40631D01*
X33432Y-40808D01*
X33447Y-40831D01*
X33523Y-40863D01*
X33835Y-40551D01*
X33835Y-40565D01*
X33530Y-40870D01*
X33562Y-40945D01*
X33734Y-41023D01*
X33923Y-41028D01*
X34099Y-40961D01*
X34123Y-40945D01*
X34154Y-40870D01*
X34154Y-51737D01*
X33750Y-51737D01*
X33285Y-51929D01*
X32930Y-52284D01*
X32738Y-52747D01*
X32737Y-53249D01*
X32929Y-53714D01*
X33284Y-54069D01*
X33747Y-54261D01*
X34249Y-54262D01*
X34714Y-54070D01*
X35069Y-53715D01*
X35261Y-53252D01*
X35262Y-52750D01*
X35262Y-54450D01*
X32550Y-54450D01*
X32550Y-31550D01*
X43588Y-31550D01*
X43548Y-31590D01*
X43525Y-31645D01*
X43525Y-31705D01*
X43525Y-32354D01*
X43548Y-32409D01*
X43590Y-32451D01*
X43645Y-32474D01*
X43705Y-32474D01*
X44354Y-32474D01*
X44409Y-32451D01*
X44451Y-32409D01*
X44474Y-32354D01*
X44474Y-32294D01*
X44474Y-31645D01*
X44451Y-31590D01*
X44411Y-31550D01*
X44845Y-31550D01*
X44731Y-31597D01*
X44597Y-31730D01*
X44525Y-31905D01*
X44525Y-32094D01*
X44597Y-32268D01*
X44730Y-32402D01*
X44905Y-32474D01*
X45094Y-32474D01*
X45268Y-32402D01*
X45402Y-32269D01*
X45474Y-32094D01*
X45474Y-31905D01*
X45402Y-31731D01*
X45269Y-31597D01*
X45154Y-31550D01*
X46588Y-31550D01*
X46548Y-31590D01*
X46525Y-31645D01*
X46525Y-31705D01*
X46525Y-32354D01*
X46548Y-32409D01*
X46590Y-32451D01*
X46645Y-32474D01*
X46705Y-32474D01*
X47354Y-32474D01*
X47409Y-32451D01*
X47451Y-32409D01*
X47474Y-32354D01*
X47474Y-32294D01*
X47474Y-31645D01*
X47451Y-31590D01*
X47411Y-31550D01*
X47847Y-31550D01*
X47742Y-31589D01*
X47719Y-31605D01*
X47687Y-31680D01*
X48000Y-31992D01*
X48312Y-31680D01*
X48280Y-31605D01*
X48156Y-31550D01*
X48845Y-31550D01*
X48731Y-31597D01*
X48597Y-31730D01*
X48525Y-31905D01*
X48525Y-32094D01*
X48597Y-32268D01*
X48730Y-32402D01*
X48905Y-32474D01*
X49094Y-32474D01*
X49268Y-32402D01*
X49402Y-32269D01*
X49474Y-32094D01*
X49474Y-31905D01*
X49402Y-31731D01*
X49269Y-31597D01*
X49154Y-31550D01*
X50588Y-31550D01*
X50548Y-31590D01*
X50525Y-31645D01*
X50525Y-31705D01*
X50525Y-32354D01*
X50548Y-32409D01*
X50590Y-32451D01*
X50645Y-32474D01*
X50705Y-32474D01*
X51354Y-32474D01*
X51409Y-32451D01*
X51451Y-32409D01*
X51474Y-32354D01*
X51474Y-32294D01*
X51474Y-31645D01*
X51451Y-31590D01*
X51411Y-31550D01*
X51845Y-31550D01*
X51731Y-31597D01*
X51597Y-31730D01*
X51525Y-31905D01*
X51525Y-32094D01*
X51597Y-32268D01*
X51730Y-32402D01*
X51905Y-32474D01*
X52094Y-32474D01*
X52268Y-32402D01*
X52402Y-32269D01*
X52474Y-32094D01*
X52474Y-31905D01*
X52402Y-31731D01*
X52269Y-31597D01*
X52154Y-31550D01*
X55450Y-31550D01*
X55450Y-42115D01*
X55447Y-42115D01*
X55327Y-42165D01*
X55295Y-42197D01*
X55278Y-42181D01*
X55278Y-40984D01*
X55263Y-40907D01*
X55262Y-40906D01*
X55262Y-32750D01*
X55070Y-32285D01*
X54715Y-31930D01*
X54252Y-31738D01*
X53750Y-31737D01*
X53285Y-31929D01*
X52930Y-32284D01*
X52738Y-32747D01*
X52737Y-33249D01*
X52929Y-33714D01*
X53284Y-34069D01*
X53747Y-34261D01*
X54249Y-34262D01*
X54714Y-34070D01*
X55069Y-33715D01*
X55261Y-33252D01*
X55262Y-32750D01*
X55262Y-40906D01*
X55220Y-40842D01*
X53631Y-39254D01*
X53642Y-39254D01*
X54291Y-39254D01*
X54346Y-39231D01*
X54388Y-39189D01*
X54411Y-39134D01*
X54411Y-39074D01*
X54411Y-38424D01*
X54388Y-38369D01*
X54346Y-38327D01*
X54291Y-38304D01*
X54231Y-38304D01*
X53582Y-38304D01*
X53527Y-38327D01*
X53485Y-38369D01*
X53462Y-38424D01*
X53462Y-38484D01*
X53462Y-39093D01*
X53422Y-39067D01*
X53346Y-39051D01*
X53291Y-39051D01*
X53215Y-38976D01*
X53096Y-38927D01*
X52967Y-38926D01*
X52847Y-38976D01*
X52795Y-39028D01*
X52743Y-38976D01*
X52623Y-38927D01*
X52494Y-38926D01*
X52375Y-38976D01*
X52283Y-39067D01*
X52234Y-39187D01*
X52233Y-39316D01*
X52283Y-39435D01*
X52359Y-39511D01*
X52359Y-39976D01*
X52283Y-40051D01*
X52234Y-40171D01*
X52233Y-40300D01*
X52283Y-40420D01*
X52374Y-40511D01*
X52494Y-40561D01*
X52623Y-40561D01*
X52742Y-40511D01*
X52834Y-40420D01*
X52883Y-40301D01*
X52884Y-40171D01*
X52834Y-40052D01*
X52759Y-39976D01*
X52759Y-39511D01*
X52795Y-39475D01*
X52847Y-39527D01*
X52966Y-39576D01*
X53095Y-39577D01*
X53215Y-39527D01*
X53277Y-39465D01*
X54878Y-41067D01*
X54878Y-42181D01*
X54862Y-42197D01*
X54790Y-42126D01*
X54671Y-42076D01*
X54564Y-42076D01*
X54157Y-41669D01*
X54092Y-41626D01*
X54015Y-41611D01*
X53238Y-41611D01*
X53238Y-40880D01*
X53189Y-40761D01*
X53097Y-40669D01*
X52978Y-40619D01*
X52849Y-40619D01*
X52729Y-40669D01*
X52653Y-40744D01*
X51456Y-40744D01*
X51392Y-40757D01*
X51380Y-40760D01*
X51315Y-40803D01*
X51026Y-41092D01*
X50919Y-41092D01*
X50800Y-41141D01*
X50708Y-41232D01*
X50659Y-41352D01*
X50659Y-41477D01*
X50583Y-41401D01*
X50583Y-41220D01*
X50583Y-39803D01*
X50565Y-39715D01*
X50516Y-39641D01*
X50246Y-39371D01*
X50246Y-37888D01*
X50196Y-37768D01*
X50105Y-37677D01*
X49986Y-37627D01*
X49856Y-37627D01*
X49737Y-37677D01*
X49661Y-37752D01*
X48947Y-37752D01*
X48947Y-33990D01*
X48897Y-33871D01*
X48806Y-33779D01*
X48686Y-33730D01*
X48557Y-33730D01*
X48477Y-33763D01*
X48477Y-31919D01*
X48410Y-31742D01*
X48394Y-31719D01*
X48319Y-31687D01*
X48007Y-32000D01*
X48319Y-32312D01*
X48394Y-32280D01*
X48471Y-32108D01*
X48477Y-31919D01*
X48477Y-33763D01*
X48438Y-33779D01*
X48346Y-33870D01*
X48312Y-33953D01*
X48312Y-32319D01*
X48000Y-32007D01*
X47992Y-32014D01*
X47992Y-32000D01*
X47680Y-31687D01*
X47605Y-31719D01*
X47528Y-31891D01*
X47522Y-32080D01*
X47589Y-32257D01*
X47605Y-32280D01*
X47680Y-32312D01*
X47992Y-32000D01*
X47992Y-32014D01*
X47687Y-32319D01*
X47719Y-32394D01*
X47891Y-32471D01*
X48080Y-32477D01*
X48257Y-32410D01*
X48280Y-32394D01*
X48312Y-32319D01*
X48312Y-33953D01*
X48297Y-33990D01*
X48297Y-34097D01*
X47909Y-34485D01*
X47530Y-34485D01*
X47674Y-34340D01*
X47780Y-34340D01*
X47900Y-34291D01*
X47991Y-34200D01*
X48041Y-34080D01*
X48041Y-33951D01*
X47992Y-33831D01*
X47900Y-33740D01*
X47781Y-33690D01*
X47652Y-33690D01*
X47532Y-33740D01*
X47441Y-33831D01*
X47391Y-33950D01*
X47391Y-34057D01*
X47200Y-34248D01*
X46862Y-34248D01*
X46899Y-34159D01*
X46899Y-34030D01*
X46850Y-33910D01*
X46759Y-33819D01*
X46639Y-33769D01*
X46510Y-33769D01*
X46390Y-33818D01*
X46315Y-33894D01*
X46102Y-33894D01*
X46038Y-33907D01*
X46025Y-33909D01*
X45960Y-33953D01*
X43900Y-36013D01*
X43793Y-36013D01*
X43674Y-36062D01*
X43582Y-36154D01*
X43533Y-36273D01*
X43533Y-36402D01*
X43582Y-36522D01*
X43673Y-36613D01*
X43793Y-36663D01*
X43922Y-36663D01*
X43966Y-36645D01*
X43966Y-36717D01*
X44015Y-36837D01*
X44107Y-36928D01*
X44226Y-36978D01*
X44355Y-36978D01*
X44475Y-36929D01*
X44527Y-36876D01*
X44618Y-36968D01*
X44738Y-37017D01*
X44867Y-37017D01*
X44987Y-36968D01*
X45078Y-36877D01*
X45128Y-36757D01*
X45128Y-36650D01*
X46893Y-34885D01*
X47992Y-34885D01*
X48068Y-34869D01*
X48133Y-34826D01*
X48579Y-34380D01*
X48686Y-34380D01*
X48805Y-34330D01*
X48897Y-34239D01*
X48946Y-34120D01*
X48947Y-33990D01*
X48947Y-37752D01*
X48671Y-37752D01*
X48671Y-36667D01*
X48622Y-36548D01*
X48530Y-36456D01*
X48411Y-36407D01*
X48344Y-36407D01*
X47884Y-35946D01*
X47884Y-35880D01*
X47834Y-35761D01*
X47743Y-35669D01*
X47623Y-35619D01*
X47494Y-35619D01*
X47375Y-35669D01*
X47283Y-35760D01*
X47234Y-35879D01*
X47233Y-36009D01*
X47283Y-36128D01*
X47374Y-36220D01*
X47494Y-36269D01*
X47560Y-36269D01*
X48021Y-36730D01*
X48021Y-36796D01*
X48070Y-36916D01*
X48162Y-37007D01*
X48281Y-37057D01*
X48410Y-37057D01*
X48530Y-37007D01*
X48621Y-36916D01*
X48671Y-36797D01*
X48671Y-36667D01*
X48671Y-37752D01*
X47270Y-37752D01*
X47244Y-37690D01*
X47152Y-37598D01*
X47033Y-37549D01*
X46904Y-37548D01*
X46784Y-37598D01*
X46693Y-37689D01*
X46643Y-37809D01*
X46643Y-37938D01*
X46692Y-38057D01*
X46784Y-38149D01*
X46903Y-38198D01*
X47032Y-38199D01*
X47144Y-38152D01*
X49661Y-38152D01*
X49736Y-38228D01*
X49856Y-38277D01*
X49985Y-38277D01*
X50105Y-38228D01*
X50196Y-38137D01*
X50246Y-38017D01*
X50246Y-37888D01*
X50246Y-39371D01*
X50083Y-39208D01*
X50008Y-39158D01*
X49921Y-39141D01*
X49089Y-39141D01*
X49042Y-39094D01*
X48923Y-39045D01*
X48793Y-39045D01*
X48674Y-39094D01*
X48582Y-39185D01*
X48533Y-39305D01*
X48533Y-39434D01*
X48582Y-39553D01*
X48673Y-39645D01*
X48793Y-39695D01*
X48922Y-39695D01*
X49042Y-39645D01*
X49089Y-39598D01*
X49826Y-39598D01*
X49910Y-39682D01*
X49901Y-39682D01*
X49251Y-39682D01*
X49196Y-39705D01*
X49154Y-39747D01*
X49131Y-39802D01*
X49131Y-39862D01*
X49131Y-40512D01*
X49154Y-40567D01*
X49196Y-40609D01*
X49251Y-40632D01*
X49311Y-40632D01*
X49960Y-40632D01*
X50016Y-40609D01*
X50058Y-40567D01*
X50081Y-40512D01*
X50081Y-40452D01*
X50081Y-39853D01*
X50125Y-39897D01*
X50125Y-41220D01*
X50125Y-41496D01*
X50143Y-41583D01*
X50192Y-41657D01*
X50507Y-41972D01*
X50581Y-42022D01*
X50669Y-42039D01*
X50728Y-42039D01*
X50685Y-42083D01*
X48703Y-42083D01*
X48703Y-40512D01*
X48703Y-40452D01*
X48703Y-39802D01*
X48680Y-39747D01*
X48638Y-39705D01*
X48582Y-39682D01*
X48523Y-39682D01*
X47873Y-39682D01*
X47818Y-39705D01*
X47776Y-39747D01*
X47753Y-39802D01*
X47753Y-39862D01*
X47753Y-40512D01*
X47776Y-40567D01*
X47818Y-40609D01*
X47873Y-40632D01*
X47933Y-40632D01*
X48582Y-40632D01*
X48638Y-40609D01*
X48680Y-40567D01*
X48703Y-40512D01*
X48703Y-42083D01*
X47716Y-42083D01*
X47652Y-42096D01*
X47639Y-42098D01*
X47575Y-42142D01*
X46925Y-42792D01*
X46913Y-42792D01*
X46837Y-42716D01*
X46718Y-42667D01*
X46589Y-42667D01*
X46469Y-42716D01*
X46378Y-42807D01*
X46328Y-42927D01*
X46328Y-43056D01*
X46377Y-43175D01*
X46469Y-43267D01*
X46588Y-43317D01*
X46656Y-43317D01*
X46847Y-43508D01*
X46847Y-43677D01*
X46771Y-43752D01*
X46722Y-43872D01*
X46722Y-44001D01*
X46771Y-44120D01*
X46862Y-44212D01*
X46982Y-44261D01*
X47111Y-44262D01*
X47231Y-44212D01*
X47240Y-44202D01*
X47240Y-46000D01*
X47165Y-46075D01*
X47116Y-46194D01*
X47115Y-46324D01*
X47165Y-46443D01*
X47256Y-46535D01*
X47376Y-46584D01*
X47505Y-46584D01*
X47624Y-46535D01*
X47716Y-46444D01*
X47765Y-46324D01*
X47766Y-46195D01*
X47716Y-46075D01*
X47640Y-46000D01*
X47640Y-43566D01*
X47716Y-43491D01*
X47765Y-43372D01*
X47766Y-43242D01*
X47716Y-43123D01*
X47625Y-43031D01*
X47505Y-42982D01*
X47376Y-42982D01*
X47257Y-43031D01*
X47165Y-43122D01*
X47125Y-43220D01*
X47082Y-43177D01*
X47084Y-43176D01*
X47149Y-43133D01*
X47799Y-42483D01*
X50403Y-42483D01*
X50354Y-42532D01*
X50304Y-42651D01*
X50304Y-42780D01*
X50354Y-42900D01*
X50429Y-42976D01*
X50429Y-44307D01*
X50354Y-44382D01*
X50304Y-44501D01*
X50304Y-44631D01*
X50354Y-44750D01*
X50445Y-44842D01*
X50564Y-44891D01*
X50694Y-44891D01*
X50813Y-44842D01*
X50905Y-44751D01*
X50954Y-44631D01*
X50954Y-44502D01*
X50905Y-44383D01*
X50829Y-44307D01*
X50829Y-43336D01*
X50839Y-43346D01*
X50958Y-43395D01*
X51087Y-43395D01*
X51207Y-43346D01*
X51298Y-43255D01*
X51348Y-43135D01*
X51348Y-43006D01*
X51299Y-42887D01*
X51252Y-42839D01*
X51252Y-42771D01*
X51460Y-42563D01*
X51510Y-42489D01*
X51527Y-42401D01*
X51527Y-42165D01*
X51510Y-42077D01*
X51460Y-42003D01*
X51155Y-41698D01*
X51168Y-41693D01*
X51259Y-41601D01*
X51309Y-41482D01*
X51309Y-41375D01*
X51539Y-41144D01*
X52653Y-41144D01*
X52729Y-41220D01*
X52848Y-41269D01*
X52977Y-41269D01*
X53097Y-41220D01*
X53188Y-41129D01*
X53238Y-41009D01*
X53238Y-40880D01*
X53238Y-41611D01*
X52936Y-41611D01*
X52861Y-41535D01*
X52742Y-41486D01*
X52612Y-41485D01*
X52493Y-41535D01*
X52401Y-41626D01*
X52352Y-41746D01*
X52352Y-41875D01*
X52401Y-41994D01*
X52492Y-42086D01*
X52612Y-42135D01*
X52741Y-42136D01*
X52861Y-42086D01*
X52936Y-42011D01*
X53932Y-42011D01*
X54281Y-42359D01*
X54281Y-42465D01*
X54330Y-42585D01*
X54421Y-42676D01*
X54541Y-42726D01*
X54670Y-42726D01*
X54790Y-42677D01*
X54822Y-42644D01*
X54894Y-42716D01*
X54936Y-42733D01*
X54759Y-42910D01*
X53503Y-42910D01*
X53440Y-42922D01*
X53427Y-42925D01*
X53362Y-42968D01*
X52837Y-43493D01*
X52730Y-43493D01*
X52611Y-43543D01*
X52519Y-43634D01*
X52470Y-43753D01*
X52470Y-43883D01*
X52519Y-44002D01*
X52521Y-44004D01*
X52493Y-44015D01*
X52401Y-44107D01*
X52352Y-44226D01*
X52352Y-44355D01*
X52401Y-44475D01*
X52492Y-44566D01*
X52612Y-44616D01*
X52741Y-44616D01*
X52861Y-44567D01*
X52952Y-44475D01*
X52995Y-44373D01*
X54346Y-44373D01*
X54421Y-44448D01*
X54541Y-44498D01*
X54670Y-44498D01*
X54790Y-44448D01*
X54881Y-44357D01*
X54931Y-44238D01*
X54931Y-44108D01*
X54881Y-43989D01*
X54790Y-43897D01*
X54671Y-43848D01*
X54541Y-43848D01*
X54422Y-43897D01*
X54346Y-43973D01*
X53083Y-43973D01*
X53120Y-43883D01*
X53120Y-43776D01*
X53586Y-43310D01*
X54842Y-43310D01*
X54919Y-43295D01*
X54983Y-43251D01*
X55450Y-42785D01*
X55450Y-46178D01*
X55413Y-46178D01*
X54763Y-46178D01*
X54708Y-46201D01*
X54666Y-46243D01*
X54643Y-46298D01*
X54643Y-46358D01*
X54643Y-47008D01*
X54666Y-47063D01*
X54708Y-47105D01*
X54763Y-47128D01*
X54823Y-47128D01*
X55450Y-47128D01*
X55450Y-48588D01*
X55409Y-48548D01*
X55354Y-48525D01*
X55294Y-48525D01*
X55042Y-48525D01*
X55005Y-48562D01*
X55005Y-48995D01*
X55012Y-48995D01*
X55012Y-49005D01*
X55005Y-49005D01*
X55005Y-49437D01*
X55042Y-49474D01*
X55294Y-49474D01*
X55354Y-49474D01*
X55409Y-49451D01*
X55450Y-49411D01*
X55450Y-49845D01*
X55402Y-49731D01*
X55269Y-49597D01*
X55094Y-49525D01*
X54995Y-49525D01*
X54995Y-49437D01*
X54995Y-49005D01*
X54995Y-48995D01*
X54995Y-48562D01*
X54957Y-48525D01*
X54705Y-48525D01*
X54645Y-48525D01*
X54590Y-48548D01*
X54548Y-48590D01*
X54525Y-48645D01*
X54525Y-48957D01*
X54562Y-48995D01*
X54995Y-48995D01*
X54995Y-49005D01*
X54562Y-49005D01*
X54525Y-49042D01*
X54525Y-49354D01*
X54548Y-49409D01*
X54590Y-49451D01*
X54645Y-49474D01*
X54705Y-49474D01*
X54957Y-49474D01*
X54995Y-49437D01*
X54995Y-49525D01*
X54905Y-49525D01*
X54731Y-49597D01*
X54597Y-49730D01*
X54525Y-49905D01*
X54525Y-50094D01*
X54597Y-50268D01*
X54730Y-50402D01*
X54905Y-50474D01*
X55094Y-50474D01*
X55268Y-50402D01*
X55402Y-50269D01*
X55450Y-50154D01*
X55450Y-54450D01*
X55450Y-54450D01*
G37*
G54D19*
X55450Y-54450D02*
X55262Y-54450D01*
X55262Y-52750D01*
X55070Y-52285D01*
X54715Y-51930D01*
X54252Y-51738D01*
X53750Y-51737D01*
X53285Y-51929D01*
X52930Y-52284D01*
X52738Y-52747D01*
X52737Y-53249D01*
X52929Y-53714D01*
X53284Y-54069D01*
X53747Y-54261D01*
X54249Y-54262D01*
X54714Y-54070D01*
X55069Y-53715D01*
X55261Y-53252D01*
X55262Y-52750D01*
X55262Y-54450D01*
X52483Y-54450D01*
X52492Y-54427D01*
X52492Y-54234D01*
X52418Y-54056D01*
X52282Y-53920D01*
X52104Y-53846D01*
X51911Y-53845D01*
X51733Y-53919D01*
X51624Y-54028D01*
X51624Y-47022D01*
X51574Y-46902D01*
X51483Y-46811D01*
X51364Y-46761D01*
X51234Y-46761D01*
X51115Y-46810D01*
X51039Y-46886D01*
X49695Y-46886D01*
X49695Y-46825D01*
X49645Y-46705D01*
X49554Y-46614D01*
X49435Y-46564D01*
X49305Y-46564D01*
X49186Y-46614D01*
X49094Y-46705D01*
X49045Y-46824D01*
X49045Y-46954D01*
X49094Y-47073D01*
X49185Y-47165D01*
X49305Y-47214D01*
X49412Y-47214D01*
X49425Y-47228D01*
X49490Y-47271D01*
X49566Y-47286D01*
X51039Y-47286D01*
X51114Y-47361D01*
X51234Y-47411D01*
X51363Y-47411D01*
X51483Y-47362D01*
X51574Y-47270D01*
X51624Y-47151D01*
X51624Y-47022D01*
X51624Y-54028D01*
X51597Y-54055D01*
X51573Y-54113D01*
X51558Y-54078D01*
X51433Y-53953D01*
X51409Y-53943D01*
X51409Y-53937D01*
X51392Y-53849D01*
X51342Y-53775D01*
X50949Y-53381D01*
X50874Y-53331D01*
X50787Y-53314D01*
X50230Y-53314D01*
X50184Y-53267D01*
X50064Y-53218D01*
X49935Y-53218D01*
X49816Y-53267D01*
X49724Y-53358D01*
X49675Y-53478D01*
X49674Y-53607D01*
X49724Y-53727D01*
X49815Y-53818D01*
X49935Y-53868D01*
X50064Y-53868D01*
X50183Y-53818D01*
X50230Y-53772D01*
X50692Y-53772D01*
X50901Y-53980D01*
X50803Y-54078D01*
X50787Y-54117D01*
X50771Y-54078D01*
X50646Y-53953D01*
X50482Y-53885D01*
X50305Y-53885D01*
X50141Y-53953D01*
X50016Y-54078D01*
X50000Y-54117D01*
X49984Y-54078D01*
X49858Y-53953D01*
X49695Y-53885D01*
X49518Y-53885D01*
X49354Y-53953D01*
X49229Y-54078D01*
X49214Y-54113D01*
X49190Y-54056D01*
X49054Y-53920D01*
X48876Y-53846D01*
X48683Y-53845D01*
X48505Y-53919D01*
X48368Y-54055D01*
X48294Y-54233D01*
X48294Y-54426D01*
X48304Y-54450D01*
X47098Y-54450D01*
X47098Y-44990D01*
X47031Y-44826D01*
X46906Y-44701D01*
X46742Y-44633D01*
X46565Y-44633D01*
X46401Y-44701D01*
X46276Y-44826D01*
X46208Y-44989D01*
X46208Y-45166D01*
X46275Y-45330D01*
X46400Y-45456D01*
X46564Y-45523D01*
X46741Y-45524D01*
X46905Y-45456D01*
X47030Y-45331D01*
X47098Y-45167D01*
X47098Y-44990D01*
X47098Y-54450D01*
X46584Y-54450D01*
X46584Y-52100D01*
X46535Y-51981D01*
X46459Y-51905D01*
X46459Y-51637D01*
X46535Y-51562D01*
X46584Y-51442D01*
X46584Y-51313D01*
X46535Y-51194D01*
X46444Y-51102D01*
X46324Y-51053D01*
X46195Y-51052D01*
X46114Y-51086D01*
X46114Y-45974D01*
X46114Y-44006D01*
X46046Y-43842D01*
X45921Y-43717D01*
X45758Y-43649D01*
X45581Y-43649D01*
X45553Y-43660D01*
X45553Y-40315D01*
X45553Y-40255D01*
X45553Y-39605D01*
X45530Y-39550D01*
X45488Y-39508D01*
X45433Y-39485D01*
X45373Y-39485D01*
X44724Y-39485D01*
X44668Y-39508D01*
X44626Y-39550D01*
X44603Y-39605D01*
X44603Y-39665D01*
X44603Y-40315D01*
X44626Y-40370D01*
X44668Y-40412D01*
X44724Y-40435D01*
X44783Y-40435D01*
X45433Y-40435D01*
X45488Y-40412D01*
X45530Y-40370D01*
X45553Y-40315D01*
X45553Y-43660D01*
X45417Y-43716D01*
X45292Y-43841D01*
X45224Y-44005D01*
X45223Y-44182D01*
X45291Y-44346D01*
X45416Y-44471D01*
X45580Y-44539D01*
X45757Y-44539D01*
X45921Y-44472D01*
X46046Y-44347D01*
X46114Y-44183D01*
X46114Y-44006D01*
X46114Y-45974D01*
X46046Y-45811D01*
X45921Y-45685D01*
X45758Y-45617D01*
X45581Y-45617D01*
X45417Y-45685D01*
X45292Y-45810D01*
X45224Y-45974D01*
X45223Y-46151D01*
X45291Y-46314D01*
X45416Y-46440D01*
X45580Y-46508D01*
X45757Y-46508D01*
X45921Y-46440D01*
X46046Y-46315D01*
X46114Y-46151D01*
X46114Y-45974D01*
X46114Y-51086D01*
X46075Y-51102D01*
X45984Y-51193D01*
X45934Y-51313D01*
X45934Y-51442D01*
X45984Y-51561D01*
X46059Y-51637D01*
X46059Y-51905D01*
X45984Y-51981D01*
X45934Y-52100D01*
X45934Y-52229D01*
X45984Y-52349D01*
X46075Y-52440D01*
X46194Y-52490D01*
X46324Y-52490D01*
X46443Y-52441D01*
X46535Y-52349D01*
X46584Y-52230D01*
X46584Y-52100D01*
X46584Y-54450D01*
X46269Y-54450D01*
X46269Y-53045D01*
X46220Y-52926D01*
X46129Y-52834D01*
X46009Y-52785D01*
X45880Y-52785D01*
X45761Y-52834D01*
X45714Y-52881D01*
X45159Y-52881D01*
X45159Y-42283D01*
X45159Y-42224D01*
X45159Y-41574D01*
X45137Y-41519D01*
X45094Y-41477D01*
X45039Y-41454D01*
X44980Y-41454D01*
X44380Y-41454D01*
X44380Y-40250D01*
X44330Y-40131D01*
X44239Y-40039D01*
X44120Y-39990D01*
X43990Y-39989D01*
X43871Y-40039D01*
X43795Y-40114D01*
X42797Y-40114D01*
X42797Y-37323D01*
X42797Y-37263D01*
X42797Y-36613D01*
X42774Y-36558D01*
X42732Y-36516D01*
X42677Y-36493D01*
X42617Y-36493D01*
X41968Y-36493D01*
X41913Y-36516D01*
X41870Y-36558D01*
X41848Y-36613D01*
X41848Y-36673D01*
X41848Y-37323D01*
X41870Y-37378D01*
X41913Y-37420D01*
X41968Y-37443D01*
X42027Y-37443D01*
X42677Y-37443D01*
X42732Y-37420D01*
X42774Y-37378D01*
X42797Y-37323D01*
X42797Y-40114D01*
X41797Y-40114D01*
X41797Y-36874D01*
X41725Y-36699D01*
X41592Y-36566D01*
X41417Y-36493D01*
X41228Y-36493D01*
X41054Y-36565D01*
X40920Y-36699D01*
X40848Y-36873D01*
X40847Y-37062D01*
X40920Y-37237D01*
X41053Y-37370D01*
X41227Y-37443D01*
X41416Y-37443D01*
X41591Y-37371D01*
X41725Y-37237D01*
X41797Y-37063D01*
X41797Y-36874D01*
X41797Y-40114D01*
X41303Y-40114D01*
X40800Y-39611D01*
X40800Y-36887D01*
X40732Y-36711D01*
X40717Y-36688D01*
X40642Y-36656D01*
X40635Y-36663D01*
X40635Y-36649D01*
X40603Y-36573D01*
X40430Y-36496D01*
X40242Y-36491D01*
X40065Y-36558D01*
X40042Y-36573D01*
X40010Y-36649D01*
X40322Y-36961D01*
X40635Y-36649D01*
X40635Y-36663D01*
X40329Y-36968D01*
X40642Y-37280D01*
X40717Y-37248D01*
X40794Y-37076D01*
X40800Y-36887D01*
X40800Y-39611D01*
X40679Y-39490D01*
X40679Y-39384D01*
X40635Y-39277D01*
X40635Y-37287D01*
X40322Y-36975D01*
X40315Y-36982D01*
X40315Y-36968D01*
X40003Y-36656D01*
X39928Y-36688D01*
X39850Y-36860D01*
X39845Y-37049D01*
X39912Y-37225D01*
X39928Y-37248D01*
X40003Y-37280D01*
X40315Y-36968D01*
X40315Y-36982D01*
X40010Y-37287D01*
X40042Y-37363D01*
X40214Y-37440D01*
X40403Y-37445D01*
X40580Y-37378D01*
X40603Y-37363D01*
X40635Y-37287D01*
X40635Y-39277D01*
X40630Y-39264D01*
X40538Y-39173D01*
X40419Y-39123D01*
X40289Y-39123D01*
X40180Y-39169D01*
X40141Y-39110D01*
X40023Y-38992D01*
X39958Y-38949D01*
X39881Y-38933D01*
X39370Y-38933D01*
X39345Y-38938D01*
X39316Y-38927D01*
X39187Y-38926D01*
X39068Y-38976D01*
X38976Y-39067D01*
X38927Y-39187D01*
X38926Y-39316D01*
X38976Y-39435D01*
X39067Y-39527D01*
X39187Y-39576D01*
X39316Y-39577D01*
X39328Y-39571D01*
X39369Y-39672D01*
X39445Y-39747D01*
X39445Y-40196D01*
X39460Y-40273D01*
X39504Y-40338D01*
X39582Y-40417D01*
X39701Y-40535D01*
X40645Y-41480D01*
X40710Y-41523D01*
X40787Y-41538D01*
X41688Y-41538D01*
X41768Y-41618D01*
X41768Y-41793D01*
X41732Y-41705D01*
X41641Y-41614D01*
X41521Y-41564D01*
X41392Y-41564D01*
X41272Y-41614D01*
X41181Y-41705D01*
X41131Y-41824D01*
X41131Y-41954D01*
X41181Y-42073D01*
X41272Y-42165D01*
X41343Y-42194D01*
X41234Y-42194D01*
X41115Y-42244D01*
X41023Y-42335D01*
X40974Y-42454D01*
X40974Y-42584D01*
X41023Y-42703D01*
X41114Y-42795D01*
X41234Y-42844D01*
X41335Y-42844D01*
X41335Y-48412D01*
X41246Y-48375D01*
X41230Y-48375D01*
X41230Y-44030D01*
X41181Y-43910D01*
X41089Y-43819D01*
X40970Y-43769D01*
X40841Y-43769D01*
X40721Y-43818D01*
X40645Y-43894D01*
X39550Y-43894D01*
X39475Y-43819D01*
X39356Y-43769D01*
X39226Y-43769D01*
X39107Y-43818D01*
X39015Y-43910D01*
X38966Y-44029D01*
X38966Y-44158D01*
X39015Y-44278D01*
X39107Y-44369D01*
X39226Y-44419D01*
X39355Y-44419D01*
X39475Y-44370D01*
X39551Y-44294D01*
X40645Y-44294D01*
X40721Y-44369D01*
X40840Y-44419D01*
X40969Y-44419D01*
X41089Y-44370D01*
X41180Y-44278D01*
X41230Y-44159D01*
X41230Y-44030D01*
X41230Y-48375D01*
X41116Y-48375D01*
X40997Y-48425D01*
X40921Y-48500D01*
X38743Y-48500D01*
X38743Y-41653D01*
X38743Y-38425D01*
X38728Y-38348D01*
X38728Y-38348D01*
X38713Y-38327D01*
X38684Y-38283D01*
X38684Y-38283D01*
X38592Y-38191D01*
X38592Y-38085D01*
X38543Y-37965D01*
X38452Y-37874D01*
X38332Y-37824D01*
X38203Y-37824D01*
X38083Y-37873D01*
X37992Y-37965D01*
X37942Y-38084D01*
X37942Y-38213D01*
X37987Y-38321D01*
X37926Y-38346D01*
X37850Y-38422D01*
X36073Y-38422D01*
X36493Y-38002D01*
X36599Y-38002D01*
X36719Y-37952D01*
X36810Y-37861D01*
X36860Y-37742D01*
X36860Y-37612D01*
X36823Y-37522D01*
X37322Y-37522D01*
X37399Y-37507D01*
X37425Y-37490D01*
X37544Y-37490D01*
X37664Y-37441D01*
X37755Y-37349D01*
X37805Y-37230D01*
X37805Y-37100D01*
X37755Y-36981D01*
X37664Y-36889D01*
X37545Y-36840D01*
X37415Y-36840D01*
X37296Y-36889D01*
X37204Y-36981D01*
X37155Y-37100D01*
X37155Y-37122D01*
X36338Y-37122D01*
X36274Y-37135D01*
X36262Y-37138D01*
X36197Y-37181D01*
X35317Y-38061D01*
X35317Y-37457D01*
X35317Y-36457D01*
X35262Y-36324D01*
X35262Y-32750D01*
X35070Y-32285D01*
X34715Y-31930D01*
X34252Y-31738D01*
X33750Y-31737D01*
X33285Y-31929D01*
X32930Y-32284D01*
X32738Y-32747D01*
X32737Y-33249D01*
X32929Y-33714D01*
X33284Y-34069D01*
X33747Y-34261D01*
X34249Y-34262D01*
X34714Y-34070D01*
X35069Y-33715D01*
X35261Y-33252D01*
X35262Y-32750D01*
X35262Y-36324D01*
X35245Y-36282D01*
X35111Y-36148D01*
X34937Y-36076D01*
X34748Y-36076D01*
X34573Y-36148D01*
X34440Y-36281D01*
X34367Y-36456D01*
X34367Y-36645D01*
X34439Y-36819D01*
X34573Y-36953D01*
X34747Y-37025D01*
X34936Y-37026D01*
X35111Y-36953D01*
X35244Y-36820D01*
X35317Y-36646D01*
X35317Y-36457D01*
X35317Y-37457D01*
X35245Y-37282D01*
X35111Y-37148D01*
X34937Y-37076D01*
X34748Y-37076D01*
X34573Y-37148D01*
X34440Y-37281D01*
X34367Y-37456D01*
X34367Y-37645D01*
X34439Y-37819D01*
X34573Y-37953D01*
X34747Y-38025D01*
X34936Y-38026D01*
X35111Y-37953D01*
X35244Y-37820D01*
X35317Y-37646D01*
X35317Y-37457D01*
X35317Y-38061D01*
X35170Y-38207D01*
X35111Y-38148D01*
X34937Y-38076D01*
X34748Y-38076D01*
X34573Y-38148D01*
X34440Y-38281D01*
X34367Y-38456D01*
X34367Y-38645D01*
X34439Y-38819D01*
X34573Y-38953D01*
X34747Y-39025D01*
X34936Y-39026D01*
X35111Y-38953D01*
X35244Y-38820D01*
X35272Y-38753D01*
X35272Y-38838D01*
X35005Y-39104D01*
X34937Y-39076D01*
X34748Y-39076D01*
X34573Y-39148D01*
X34440Y-39281D01*
X34367Y-39456D01*
X34367Y-39645D01*
X34439Y-39819D01*
X34573Y-39953D01*
X34747Y-40025D01*
X34936Y-40026D01*
X35111Y-39953D01*
X35244Y-39820D01*
X35317Y-39646D01*
X35317Y-39457D01*
X35288Y-39387D01*
X35587Y-39089D01*
X35587Y-39523D01*
X35034Y-40076D01*
X34487Y-40076D01*
X34432Y-40099D01*
X34390Y-40141D01*
X34367Y-40196D01*
X34367Y-40256D01*
X34367Y-40905D01*
X34390Y-40960D01*
X34432Y-41003D01*
X34487Y-41025D01*
X34547Y-41025D01*
X35197Y-41025D01*
X35252Y-41003D01*
X35294Y-40960D01*
X35317Y-40905D01*
X35317Y-40846D01*
X35317Y-40359D01*
X35928Y-39747D01*
X35928Y-39747D01*
X35972Y-39682D01*
X35987Y-39606D01*
X35987Y-38980D01*
X36145Y-38822D01*
X37850Y-38822D01*
X37925Y-38897D01*
X38045Y-38946D01*
X38174Y-38947D01*
X38294Y-38897D01*
X38343Y-38848D01*
X38343Y-41485D01*
X38321Y-41485D01*
X38201Y-41535D01*
X38110Y-41626D01*
X38060Y-41746D01*
X38060Y-41875D01*
X38110Y-41994D01*
X38201Y-42086D01*
X38320Y-42135D01*
X38450Y-42136D01*
X38569Y-42086D01*
X38661Y-41995D01*
X38710Y-41875D01*
X38710Y-41755D01*
X38728Y-41730D01*
X38728Y-41730D01*
X38730Y-41717D01*
X38743Y-41653D01*
X38743Y-41653D01*
X38743Y-48500D01*
X37874Y-48500D01*
X37797Y-48516D01*
X37732Y-48559D01*
X36971Y-49320D01*
X36864Y-49320D01*
X36745Y-49369D01*
X36653Y-49461D01*
X36604Y-49580D01*
X36604Y-49710D01*
X36653Y-49829D01*
X36744Y-49921D01*
X36864Y-49970D01*
X36993Y-49970D01*
X37112Y-49921D01*
X37204Y-49830D01*
X37254Y-49710D01*
X37254Y-49603D01*
X37956Y-48900D01*
X40921Y-48900D01*
X40977Y-48956D01*
X40905Y-49028D01*
X40856Y-49147D01*
X40856Y-49276D01*
X40872Y-49317D01*
X39884Y-50304D01*
X39778Y-50304D01*
X39658Y-50354D01*
X39567Y-50445D01*
X39517Y-50564D01*
X39517Y-50694D01*
X39566Y-50813D01*
X39658Y-50905D01*
X39777Y-50954D01*
X39906Y-50954D01*
X40026Y-50905D01*
X40117Y-50814D01*
X40167Y-50694D01*
X40167Y-50587D01*
X41217Y-49537D01*
X41245Y-49537D01*
X41335Y-49500D01*
X41335Y-50665D01*
X40199Y-51801D01*
X40093Y-51800D01*
X39973Y-51850D01*
X39882Y-51941D01*
X39832Y-52061D01*
X39832Y-52190D01*
X39881Y-52309D01*
X39973Y-52401D01*
X40092Y-52450D01*
X40221Y-52451D01*
X40341Y-52401D01*
X40432Y-52310D01*
X40482Y-52190D01*
X40482Y-52083D01*
X41676Y-50889D01*
X41676Y-50889D01*
X41705Y-50846D01*
X41720Y-50824D01*
X41720Y-50824D01*
X41735Y-50748D01*
X41735Y-50748D01*
X41735Y-49500D01*
X41824Y-49537D01*
X41954Y-49537D01*
X42073Y-49488D01*
X42165Y-49396D01*
X42214Y-49277D01*
X42214Y-49148D01*
X42203Y-49122D01*
X42270Y-49094D01*
X42322Y-49042D01*
X42335Y-49054D01*
X42454Y-49104D01*
X42584Y-49104D01*
X42703Y-49055D01*
X42795Y-48963D01*
X42844Y-48844D01*
X42844Y-48715D01*
X42795Y-48595D01*
X42743Y-48543D01*
X42834Y-48452D01*
X42883Y-48332D01*
X42884Y-48203D01*
X42834Y-48083D01*
X42743Y-47992D01*
X42623Y-47942D01*
X42601Y-47942D01*
X42601Y-41341D01*
X42703Y-41299D01*
X42795Y-41207D01*
X42844Y-41088D01*
X42844Y-40959D01*
X42795Y-40839D01*
X42704Y-40748D01*
X42584Y-40698D01*
X42455Y-40698D01*
X42335Y-40747D01*
X42244Y-40839D01*
X42194Y-40958D01*
X42194Y-41087D01*
X42206Y-41116D01*
X42203Y-41133D01*
X42070Y-41000D01*
X42005Y-40956D01*
X41929Y-40941D01*
X41185Y-40941D01*
X40417Y-40173D01*
X40417Y-40173D01*
X40417Y-40173D01*
X40259Y-40016D01*
X40200Y-39956D01*
X40200Y-39736D01*
X40289Y-39773D01*
X40396Y-39773D01*
X41079Y-40456D01*
X41143Y-40499D01*
X41220Y-40514D01*
X43795Y-40514D01*
X43870Y-40590D01*
X43990Y-40639D01*
X44119Y-40640D01*
X44238Y-40590D01*
X44330Y-40499D01*
X44380Y-40379D01*
X44380Y-40250D01*
X44380Y-41454D01*
X44330Y-41454D01*
X44275Y-41477D01*
X44233Y-41519D01*
X44210Y-41574D01*
X44210Y-41634D01*
X44210Y-42283D01*
X44233Y-42338D01*
X44275Y-42381D01*
X44330Y-42403D01*
X44390Y-42403D01*
X45039Y-42403D01*
X45094Y-42381D01*
X45137Y-42338D01*
X45159Y-42283D01*
X45159Y-52881D01*
X42120Y-52881D01*
X42074Y-52834D01*
X41954Y-52785D01*
X41825Y-52785D01*
X41705Y-52834D01*
X41614Y-52925D01*
X41564Y-53045D01*
X41564Y-53174D01*
X41614Y-53294D01*
X41705Y-53385D01*
X41824Y-53435D01*
X41954Y-53435D01*
X42073Y-53385D01*
X42120Y-53338D01*
X45714Y-53338D01*
X45760Y-53385D01*
X45879Y-53435D01*
X46009Y-53435D01*
X46128Y-53385D01*
X46220Y-53294D01*
X46269Y-53175D01*
X46269Y-53045D01*
X46269Y-54450D01*
X41075Y-54450D01*
X41075Y-52486D01*
X41019Y-52351D01*
X40916Y-52248D01*
X40781Y-52192D01*
X40636Y-52192D01*
X40501Y-52248D01*
X40398Y-52351D01*
X40342Y-52485D01*
X40342Y-52631D01*
X40397Y-52766D01*
X40500Y-52869D01*
X40635Y-52925D01*
X40781Y-52925D01*
X40916Y-52869D01*
X41019Y-52766D01*
X41075Y-52632D01*
X41075Y-52486D01*
X41075Y-54450D01*
X40602Y-54450D01*
X40602Y-53455D01*
X40535Y-53291D01*
X40410Y-53166D01*
X40246Y-53098D01*
X40069Y-53097D01*
X39905Y-53165D01*
X39780Y-53290D01*
X39712Y-53454D01*
X39712Y-53631D01*
X39779Y-53795D01*
X39904Y-53920D01*
X40068Y-53988D01*
X40245Y-53988D01*
X40409Y-53921D01*
X40534Y-53795D01*
X40602Y-53632D01*
X40602Y-53455D01*
X40602Y-54450D01*
X38634Y-54450D01*
X38634Y-53455D01*
X38566Y-53291D01*
X38441Y-53166D01*
X38277Y-53098D01*
X38100Y-53097D01*
X38004Y-53137D01*
X38004Y-52486D01*
X37948Y-52351D01*
X37845Y-52248D01*
X37711Y-52192D01*
X37565Y-52192D01*
X37430Y-52248D01*
X37327Y-52351D01*
X37271Y-52485D01*
X37271Y-52631D01*
X37326Y-52766D01*
X37429Y-52869D01*
X37564Y-52925D01*
X37710Y-52925D01*
X37845Y-52869D01*
X37948Y-52766D01*
X38004Y-52632D01*
X38004Y-52486D01*
X38004Y-53137D01*
X37937Y-53165D01*
X37811Y-53290D01*
X37743Y-53454D01*
X37743Y-53631D01*
X37811Y-53795D01*
X37936Y-53920D01*
X38100Y-53988D01*
X38277Y-53988D01*
X38440Y-53921D01*
X38566Y-53795D01*
X38634Y-53632D01*
X38634Y-53455D01*
X38634Y-54450D01*
X35262Y-54450D01*
X35262Y-52750D01*
X35070Y-52285D01*
X34970Y-52185D01*
X34970Y-51431D01*
X34921Y-51312D01*
X34845Y-51236D01*
X34845Y-49905D01*
X34921Y-49830D01*
X34970Y-49710D01*
X34970Y-49581D01*
X34921Y-49461D01*
X34830Y-49370D01*
X34710Y-49320D01*
X34581Y-49320D01*
X34461Y-49369D01*
X34370Y-49461D01*
X34320Y-49580D01*
X34320Y-49710D01*
X34369Y-49829D01*
X34445Y-49905D01*
X34445Y-51236D01*
X34370Y-51311D01*
X34320Y-51431D01*
X34320Y-51560D01*
X34369Y-51679D01*
X34461Y-51771D01*
X34580Y-51821D01*
X34710Y-51821D01*
X34829Y-51771D01*
X34921Y-51680D01*
X34970Y-51560D01*
X34970Y-51431D01*
X34970Y-52185D01*
X34715Y-51930D01*
X34319Y-51766D01*
X34319Y-40470D01*
X34317Y-40464D01*
X34317Y-39457D01*
X34317Y-38457D01*
X34317Y-37457D01*
X34317Y-36457D01*
X34245Y-36282D01*
X34111Y-36148D01*
X33937Y-36076D01*
X33748Y-36076D01*
X33573Y-36148D01*
X33440Y-36281D01*
X33367Y-36456D01*
X33367Y-36645D01*
X33439Y-36819D01*
X33573Y-36953D01*
X33747Y-37025D01*
X33936Y-37026D01*
X34111Y-36953D01*
X34244Y-36820D01*
X34317Y-36646D01*
X34317Y-36457D01*
X34317Y-37457D01*
X34245Y-37282D01*
X34111Y-37148D01*
X33937Y-37076D01*
X33748Y-37076D01*
X33573Y-37148D01*
X33440Y-37281D01*
X33367Y-37456D01*
X33367Y-37645D01*
X33439Y-37819D01*
X33573Y-37953D01*
X33747Y-38025D01*
X33936Y-38026D01*
X34111Y-37953D01*
X34244Y-37820D01*
X34317Y-37646D01*
X34317Y-37457D01*
X34317Y-38457D01*
X34245Y-38282D01*
X34111Y-38148D01*
X33937Y-38076D01*
X33748Y-38076D01*
X33573Y-38148D01*
X33440Y-38281D01*
X33367Y-38456D01*
X33367Y-38645D01*
X33439Y-38819D01*
X33573Y-38953D01*
X33747Y-39025D01*
X33936Y-39026D01*
X34111Y-38953D01*
X34244Y-38820D01*
X34317Y-38646D01*
X34317Y-38457D01*
X34317Y-39457D01*
X34245Y-39282D01*
X34111Y-39148D01*
X33937Y-39076D01*
X33748Y-39076D01*
X33573Y-39148D01*
X33440Y-39281D01*
X33367Y-39456D01*
X33367Y-39645D01*
X33439Y-39819D01*
X33573Y-39953D01*
X33747Y-40025D01*
X33936Y-40026D01*
X34111Y-39953D01*
X34244Y-39820D01*
X34317Y-39646D01*
X34317Y-39457D01*
X34317Y-40464D01*
X34252Y-40293D01*
X34237Y-40270D01*
X34161Y-40238D01*
X34154Y-40246D01*
X34154Y-40231D01*
X34123Y-40156D01*
X33950Y-40079D01*
X33761Y-40073D01*
X33585Y-40141D01*
X33562Y-40156D01*
X33530Y-40231D01*
X33842Y-40544D01*
X34154Y-40231D01*
X34154Y-40246D01*
X33849Y-40551D01*
X34161Y-40863D01*
X34237Y-40831D01*
X34314Y-40659D01*
X34319Y-40470D01*
X34319Y-51766D01*
X34252Y-51738D01*
X34154Y-51737D01*
X34154Y-40870D01*
X33842Y-40558D01*
X33835Y-40565D01*
X33835Y-40551D01*
X33523Y-40238D01*
X33447Y-40270D01*
X33370Y-40443D01*
X33365Y-40631D01*
X33432Y-40808D01*
X33447Y-40831D01*
X33523Y-40863D01*
X33835Y-40551D01*
X33835Y-40565D01*
X33530Y-40870D01*
X33562Y-40945D01*
X33734Y-41023D01*
X33923Y-41028D01*
X34099Y-40961D01*
X34123Y-40945D01*
X34154Y-40870D01*
X34154Y-51737D01*
X33750Y-51737D01*
X33285Y-51929D01*
X32930Y-52284D01*
X32738Y-52747D01*
X32737Y-53249D01*
X32929Y-53714D01*
X33284Y-54069D01*
X33747Y-54261D01*
X34249Y-54262D01*
X34714Y-54070D01*
X35069Y-53715D01*
X35261Y-53252D01*
X35262Y-52750D01*
X35262Y-54450D01*
X32550Y-54450D01*
X32550Y-31550D01*
X43588Y-31550D01*
X43548Y-31590D01*
X43525Y-31645D01*
X43525Y-31705D01*
X43525Y-32354D01*
X43548Y-32409D01*
X43590Y-32451D01*
X43645Y-32474D01*
X43705Y-32474D01*
X44354Y-32474D01*
X44409Y-32451D01*
X44451Y-32409D01*
X44474Y-32354D01*
X44474Y-32294D01*
X44474Y-31645D01*
X44451Y-31590D01*
X44411Y-31550D01*
X44845Y-31550D01*
X44731Y-31597D01*
X44597Y-31730D01*
X44525Y-31905D01*
X44525Y-32094D01*
X44597Y-32268D01*
X44730Y-32402D01*
X44905Y-32474D01*
X45094Y-32474D01*
X45268Y-32402D01*
X45402Y-32269D01*
X45474Y-32094D01*
X45474Y-31905D01*
X45402Y-31731D01*
X45269Y-31597D01*
X45154Y-31550D01*
X46588Y-31550D01*
X46548Y-31590D01*
X46525Y-31645D01*
X46525Y-31705D01*
X46525Y-32354D01*
X46548Y-32409D01*
X46590Y-32451D01*
X46645Y-32474D01*
X46705Y-32474D01*
X47354Y-32474D01*
X47409Y-32451D01*
X47451Y-32409D01*
X47474Y-32354D01*
X47474Y-32294D01*
X47474Y-31645D01*
X47451Y-31590D01*
X47411Y-31550D01*
X47847Y-31550D01*
X47742Y-31589D01*
X47719Y-31605D01*
X47687Y-31680D01*
X48000Y-31992D01*
X48312Y-31680D01*
X48280Y-31605D01*
X48156Y-31550D01*
X48845Y-31550D01*
X48731Y-31597D01*
X48597Y-31730D01*
X48525Y-31905D01*
X48525Y-32094D01*
X48597Y-32268D01*
X48730Y-32402D01*
X48905Y-32474D01*
X49094Y-32474D01*
X49268Y-32402D01*
X49402Y-32269D01*
X49474Y-32094D01*
X49474Y-31905D01*
X49402Y-31731D01*
X49269Y-31597D01*
X49154Y-31550D01*
X50588Y-31550D01*
X50548Y-31590D01*
X50525Y-31645D01*
X50525Y-31705D01*
X50525Y-32354D01*
X50548Y-32409D01*
X50590Y-32451D01*
X50645Y-32474D01*
X50705Y-32474D01*
X51354Y-32474D01*
X51409Y-32451D01*
X51451Y-32409D01*
X51474Y-32354D01*
X51474Y-32294D01*
X51474Y-31645D01*
X51451Y-31590D01*
X51411Y-31550D01*
X51845Y-31550D01*
X51731Y-31597D01*
X51597Y-31730D01*
X51525Y-31905D01*
X51525Y-32094D01*
X51597Y-32268D01*
X51730Y-32402D01*
X51905Y-32474D01*
X52094Y-32474D01*
X52268Y-32402D01*
X52402Y-32269D01*
X52474Y-32094D01*
X52474Y-31905D01*
X52402Y-31731D01*
X52269Y-31597D01*
X52154Y-31550D01*
X55450Y-31550D01*
X55450Y-42115D01*
X55447Y-42115D01*
X55327Y-42165D01*
X55295Y-42197D01*
X55278Y-42181D01*
X55278Y-40984D01*
X55263Y-40907D01*
X55262Y-40906D01*
X55262Y-32750D01*
X55070Y-32285D01*
X54715Y-31930D01*
X54252Y-31738D01*
X53750Y-31737D01*
X53285Y-31929D01*
X52930Y-32284D01*
X52738Y-32747D01*
X52737Y-33249D01*
X52929Y-33714D01*
X53284Y-34069D01*
X53747Y-34261D01*
X54249Y-34262D01*
X54714Y-34070D01*
X55069Y-33715D01*
X55261Y-33252D01*
X55262Y-32750D01*
X55262Y-40906D01*
X55220Y-40842D01*
X53631Y-39254D01*
X53642Y-39254D01*
X54291Y-39254D01*
X54346Y-39231D01*
X54388Y-39189D01*
X54411Y-39134D01*
X54411Y-39074D01*
X54411Y-38424D01*
X54388Y-38369D01*
X54346Y-38327D01*
X54291Y-38304D01*
X54231Y-38304D01*
X53582Y-38304D01*
X53527Y-38327D01*
X53485Y-38369D01*
X53462Y-38424D01*
X53462Y-38484D01*
X53462Y-39093D01*
X53422Y-39067D01*
X53346Y-39051D01*
X53291Y-39051D01*
X53215Y-38976D01*
X53096Y-38927D01*
X52967Y-38926D01*
X52847Y-38976D01*
X52795Y-39028D01*
X52743Y-38976D01*
X52623Y-38927D01*
X52494Y-38926D01*
X52375Y-38976D01*
X52283Y-39067D01*
X52234Y-39187D01*
X52233Y-39316D01*
X52283Y-39435D01*
X52359Y-39511D01*
X52359Y-39976D01*
X52283Y-40051D01*
X52234Y-40171D01*
X52233Y-40300D01*
X52283Y-40420D01*
X52374Y-40511D01*
X52494Y-40561D01*
X52623Y-40561D01*
X52742Y-40511D01*
X52834Y-40420D01*
X52883Y-40301D01*
X52884Y-40171D01*
X52834Y-40052D01*
X52759Y-39976D01*
X52759Y-39511D01*
X52795Y-39475D01*
X52847Y-39527D01*
X52966Y-39576D01*
X53095Y-39577D01*
X53215Y-39527D01*
X53277Y-39465D01*
X54878Y-41067D01*
X54878Y-42181D01*
X54862Y-42197D01*
X54790Y-42126D01*
X54671Y-42076D01*
X54564Y-42076D01*
X54157Y-41669D01*
X54092Y-41626D01*
X54015Y-41611D01*
X53238Y-41611D01*
X53238Y-40880D01*
X53189Y-40761D01*
X53097Y-40669D01*
X52978Y-40619D01*
X52849Y-40619D01*
X52729Y-40669D01*
X52653Y-40744D01*
X51456Y-40744D01*
X51392Y-40757D01*
X51380Y-40760D01*
X51315Y-40803D01*
X51026Y-41092D01*
X50919Y-41092D01*
X50800Y-41141D01*
X50708Y-41232D01*
X50659Y-41352D01*
X50659Y-41477D01*
X50583Y-41401D01*
X50583Y-41220D01*
X50583Y-39803D01*
X50565Y-39715D01*
X50516Y-39641D01*
X50246Y-39371D01*
X50246Y-37888D01*
X50196Y-37768D01*
X50105Y-37677D01*
X49986Y-37627D01*
X49856Y-37627D01*
X49737Y-37677D01*
X49661Y-37752D01*
X48947Y-37752D01*
X48947Y-33990D01*
X48897Y-33871D01*
X48806Y-33779D01*
X48686Y-33730D01*
X48557Y-33730D01*
X48477Y-33763D01*
X48477Y-31919D01*
X48410Y-31742D01*
X48394Y-31719D01*
X48319Y-31687D01*
X48007Y-32000D01*
X48319Y-32312D01*
X48394Y-32280D01*
X48471Y-32108D01*
X48477Y-31919D01*
X48477Y-33763D01*
X48438Y-33779D01*
X48346Y-33870D01*
X48312Y-33953D01*
X48312Y-32319D01*
X48000Y-32007D01*
X47992Y-32014D01*
X47992Y-32000D01*
X47680Y-31687D01*
X47605Y-31719D01*
X47528Y-31891D01*
X47522Y-32080D01*
X47589Y-32257D01*
X47605Y-32280D01*
X47680Y-32312D01*
X47992Y-32000D01*
X47992Y-32014D01*
X47687Y-32319D01*
X47719Y-32394D01*
X47891Y-32471D01*
X48080Y-32477D01*
X48257Y-32410D01*
X48280Y-32394D01*
X48312Y-32319D01*
X48312Y-33953D01*
X48297Y-33990D01*
X48297Y-34097D01*
X47909Y-34485D01*
X47530Y-34485D01*
X47674Y-34340D01*
X47780Y-34340D01*
X47900Y-34291D01*
X47991Y-34200D01*
X48041Y-34080D01*
X48041Y-33951D01*
X47992Y-33831D01*
X47900Y-33740D01*
X47781Y-33690D01*
X47652Y-33690D01*
X47532Y-33740D01*
X47441Y-33831D01*
X47391Y-33950D01*
X47391Y-34057D01*
X47200Y-34248D01*
X46862Y-34248D01*
X46899Y-34159D01*
X46899Y-34030D01*
X46850Y-33910D01*
X46759Y-33819D01*
X46639Y-33769D01*
X46510Y-33769D01*
X46390Y-33818D01*
X46315Y-33894D01*
X46102Y-33894D01*
X46038Y-33907D01*
X46025Y-33909D01*
X45960Y-33953D01*
X43900Y-36013D01*
X43793Y-36013D01*
X43674Y-36062D01*
X43582Y-36154D01*
X43533Y-36273D01*
X43533Y-36402D01*
X43582Y-36522D01*
X43673Y-36613D01*
X43793Y-36663D01*
X43922Y-36663D01*
X43966Y-36645D01*
X43966Y-36717D01*
X44015Y-36837D01*
X44107Y-36928D01*
X44226Y-36978D01*
X44355Y-36978D01*
X44475Y-36929D01*
X44527Y-36876D01*
X44618Y-36968D01*
X44738Y-37017D01*
X44867Y-37017D01*
X44987Y-36968D01*
X45078Y-36877D01*
X45128Y-36757D01*
X45128Y-36650D01*
X46893Y-34885D01*
X47992Y-34885D01*
X48068Y-34869D01*
X48133Y-34826D01*
X48579Y-34380D01*
X48686Y-34380D01*
X48805Y-34330D01*
X48897Y-34239D01*
X48946Y-34120D01*
X48947Y-33990D01*
X48947Y-37752D01*
X48671Y-37752D01*
X48671Y-36667D01*
X48622Y-36548D01*
X48530Y-36456D01*
X48411Y-36407D01*
X48344Y-36407D01*
X47884Y-35946D01*
X47884Y-35880D01*
X47834Y-35761D01*
X47743Y-35669D01*
X47623Y-35619D01*
X47494Y-35619D01*
X47375Y-35669D01*
X47283Y-35760D01*
X47234Y-35879D01*
X47233Y-36009D01*
X47283Y-36128D01*
X47374Y-36220D01*
X47494Y-36269D01*
X47560Y-36269D01*
X48021Y-36730D01*
X48021Y-36796D01*
X48070Y-36916D01*
X48162Y-37007D01*
X48281Y-37057D01*
X48410Y-37057D01*
X48530Y-37007D01*
X48621Y-36916D01*
X48671Y-36797D01*
X48671Y-36667D01*
X48671Y-37752D01*
X47270Y-37752D01*
X47244Y-37690D01*
X47152Y-37598D01*
X47033Y-37549D01*
X46904Y-37548D01*
X46784Y-37598D01*
X46693Y-37689D01*
X46643Y-37809D01*
X46643Y-37938D01*
X46692Y-38057D01*
X46784Y-38149D01*
X46903Y-38198D01*
X47032Y-38199D01*
X47144Y-38152D01*
X49661Y-38152D01*
X49736Y-38228D01*
X49856Y-38277D01*
X49985Y-38277D01*
X50105Y-38228D01*
X50196Y-38137D01*
X50246Y-38017D01*
X50246Y-37888D01*
X50246Y-39371D01*
X50083Y-39208D01*
X50008Y-39158D01*
X49921Y-39141D01*
X49089Y-39141D01*
X49042Y-39094D01*
X48923Y-39045D01*
X48793Y-39045D01*
X48674Y-39094D01*
X48582Y-39185D01*
X48533Y-39305D01*
X48533Y-39434D01*
X48582Y-39553D01*
X48673Y-39645D01*
X48793Y-39695D01*
X48922Y-39695D01*
X49042Y-39645D01*
X49089Y-39598D01*
X49826Y-39598D01*
X49910Y-39682D01*
X49901Y-39682D01*
X49251Y-39682D01*
X49196Y-39705D01*
X49154Y-39747D01*
X49131Y-39802D01*
X49131Y-39862D01*
X49131Y-40512D01*
X49154Y-40567D01*
X49196Y-40609D01*
X49251Y-40632D01*
X49311Y-40632D01*
X49960Y-40632D01*
X50016Y-40609D01*
X50058Y-40567D01*
X50081Y-40512D01*
X50081Y-40452D01*
X50081Y-39853D01*
X50125Y-39897D01*
X50125Y-41220D01*
X50125Y-41496D01*
X50143Y-41583D01*
X50192Y-41657D01*
X50507Y-41972D01*
X50581Y-42022D01*
X50669Y-42039D01*
X50728Y-42039D01*
X50685Y-42083D01*
X48703Y-42083D01*
X48703Y-40512D01*
X48703Y-40452D01*
X48703Y-39802D01*
X48680Y-39747D01*
X48638Y-39705D01*
X48582Y-39682D01*
X48523Y-39682D01*
X47873Y-39682D01*
X47818Y-39705D01*
X47776Y-39747D01*
X47753Y-39802D01*
X47753Y-39862D01*
X47753Y-40512D01*
X47776Y-40567D01*
X47818Y-40609D01*
X47873Y-40632D01*
X47933Y-40632D01*
X48582Y-40632D01*
X48638Y-40609D01*
X48680Y-40567D01*
X48703Y-40512D01*
X48703Y-42083D01*
X47716Y-42083D01*
X47652Y-42096D01*
X47639Y-42098D01*
X47575Y-42142D01*
X46925Y-42792D01*
X46913Y-42792D01*
X46837Y-42716D01*
X46718Y-42667D01*
X46589Y-42667D01*
X46469Y-42716D01*
X46378Y-42807D01*
X46328Y-42927D01*
X46328Y-43056D01*
X46377Y-43175D01*
X46469Y-43267D01*
X46588Y-43317D01*
X46656Y-43317D01*
X46847Y-43508D01*
X46847Y-43677D01*
X46771Y-43752D01*
X46722Y-43872D01*
X46722Y-44001D01*
X46771Y-44120D01*
X46862Y-44212D01*
X46982Y-44261D01*
X47111Y-44262D01*
X47231Y-44212D01*
X47240Y-44202D01*
X47240Y-46000D01*
X47165Y-46075D01*
X47116Y-46194D01*
X47115Y-46324D01*
X47165Y-46443D01*
X47256Y-46535D01*
X47376Y-46584D01*
X47505Y-46584D01*
X47624Y-46535D01*
X47716Y-46444D01*
X47765Y-46324D01*
X47766Y-46195D01*
X47716Y-46075D01*
X47640Y-46000D01*
X47640Y-43566D01*
X47716Y-43491D01*
X47765Y-43372D01*
X47766Y-43242D01*
X47716Y-43123D01*
X47625Y-43031D01*
X47505Y-42982D01*
X47376Y-42982D01*
X47257Y-43031D01*
X47165Y-43122D01*
X47125Y-43220D01*
X47082Y-43177D01*
X47084Y-43176D01*
X47149Y-43133D01*
X47799Y-42483D01*
X50403Y-42483D01*
X50354Y-42532D01*
X50304Y-42651D01*
X50304Y-42780D01*
X50354Y-42900D01*
X50429Y-42976D01*
X50429Y-44307D01*
X50354Y-44382D01*
X50304Y-44501D01*
X50304Y-44631D01*
X50354Y-44750D01*
X50445Y-44842D01*
X50564Y-44891D01*
X50694Y-44891D01*
X50813Y-44842D01*
X50905Y-44751D01*
X50954Y-44631D01*
X50954Y-44502D01*
X50905Y-44383D01*
X50829Y-44307D01*
X50829Y-43336D01*
X50839Y-43346D01*
X50958Y-43395D01*
X51087Y-43395D01*
X51207Y-43346D01*
X51298Y-43255D01*
X51348Y-43135D01*
X51348Y-43006D01*
X51299Y-42887D01*
X51252Y-42839D01*
X51252Y-42771D01*
X51460Y-42563D01*
X51510Y-42489D01*
X51527Y-42401D01*
X51527Y-42165D01*
X51510Y-42077D01*
X51460Y-42003D01*
X51155Y-41698D01*
X51168Y-41693D01*
X51259Y-41601D01*
X51309Y-41482D01*
X51309Y-41375D01*
X51539Y-41144D01*
X52653Y-41144D01*
X52729Y-41220D01*
X52848Y-41269D01*
X52977Y-41269D01*
X53097Y-41220D01*
X53188Y-41129D01*
X53238Y-41009D01*
X53238Y-40880D01*
X53238Y-41611D01*
X52936Y-41611D01*
X52861Y-41535D01*
X52742Y-41486D01*
X52612Y-41485D01*
X52493Y-41535D01*
X52401Y-41626D01*
X52352Y-41746D01*
X52352Y-41875D01*
X52401Y-41994D01*
X52492Y-42086D01*
X52612Y-42135D01*
X52741Y-42136D01*
X52861Y-42086D01*
X52936Y-42011D01*
X53932Y-42011D01*
X54281Y-42359D01*
X54281Y-42465D01*
X54330Y-42585D01*
X54421Y-42676D01*
X54541Y-42726D01*
X54670Y-42726D01*
X54790Y-42677D01*
X54822Y-42644D01*
X54894Y-42716D01*
X54936Y-42733D01*
X54759Y-42910D01*
X53503Y-42910D01*
X53440Y-42922D01*
X53427Y-42925D01*
X53362Y-42968D01*
X52837Y-43493D01*
X52730Y-43493D01*
X52611Y-43543D01*
X52519Y-43634D01*
X52470Y-43753D01*
X52470Y-43883D01*
X52519Y-44002D01*
X52521Y-44004D01*
X52493Y-44015D01*
X52401Y-44107D01*
X52352Y-44226D01*
X52352Y-44355D01*
X52401Y-44475D01*
X52492Y-44566D01*
X52612Y-44616D01*
X52741Y-44616D01*
X52861Y-44567D01*
X52952Y-44475D01*
X52995Y-44373D01*
X54346Y-44373D01*
X54421Y-44448D01*
X54541Y-44498D01*
X54670Y-44498D01*
X54790Y-44448D01*
X54881Y-44357D01*
X54931Y-44238D01*
X54931Y-44108D01*
X54881Y-43989D01*
X54790Y-43897D01*
X54671Y-43848D01*
X54541Y-43848D01*
X54422Y-43897D01*
X54346Y-43973D01*
X53083Y-43973D01*
X53120Y-43883D01*
X53120Y-43776D01*
X53586Y-43310D01*
X54842Y-43310D01*
X54919Y-43295D01*
X54983Y-43251D01*
X55450Y-42785D01*
X55450Y-46178D01*
X55413Y-46178D01*
X54763Y-46178D01*
X54708Y-46201D01*
X54666Y-46243D01*
X54643Y-46298D01*
X54643Y-46358D01*
X54643Y-47008D01*
X54666Y-47063D01*
X54708Y-47105D01*
X54763Y-47128D01*
X54823Y-47128D01*
X55450Y-47128D01*
X55450Y-48588D01*
X55409Y-48548D01*
X55354Y-48525D01*
X55294Y-48525D01*
X55042Y-48525D01*
X55005Y-48562D01*
X55005Y-48995D01*
X55012Y-48995D01*
X55012Y-49005D01*
X55005Y-49005D01*
X55005Y-49437D01*
X55042Y-49474D01*
X55294Y-49474D01*
X55354Y-49474D01*
X55409Y-49451D01*
X55450Y-49411D01*
X55450Y-49845D01*
X55402Y-49731D01*
X55269Y-49597D01*
X55094Y-49525D01*
X54995Y-49525D01*
X54995Y-49437D01*
X54995Y-49005D01*
X54995Y-48995D01*
X54995Y-48562D01*
X54957Y-48525D01*
X54705Y-48525D01*
X54645Y-48525D01*
X54590Y-48548D01*
X54548Y-48590D01*
X54525Y-48645D01*
X54525Y-48957D01*
X54562Y-48995D01*
X54995Y-48995D01*
X54995Y-49005D01*
X54562Y-49005D01*
X54525Y-49042D01*
X54525Y-49354D01*
X54548Y-49409D01*
X54590Y-49451D01*
X54645Y-49474D01*
X54705Y-49474D01*
X54957Y-49474D01*
X54995Y-49437D01*
X54995Y-49525D01*
X54905Y-49525D01*
X54731Y-49597D01*
X54597Y-49730D01*
X54525Y-49905D01*
X54525Y-50094D01*
X54597Y-50268D01*
X54730Y-50402D01*
X54905Y-50474D01*
X55094Y-50474D01*
X55268Y-50402D01*
X55402Y-50269D01*
X55450Y-50154D01*
X55450Y-54450D01*
M02*
